<svg xmlns="http://www.w3.org/2000/svg" width="263.301" height="31.868" viewBox="0 0 263.301 31.868">
  <g id="グループ_1" data-name="グループ 1" transform="translate(-963.78 -28.347)">
    <rect id="長方形_3" data-name="長方形 3" width="31.868" height="31.868" transform="translate(963.78 28.347)" fill="#001976"/>
    <path id="パス_1" data-name="パス 1" d="M966.906,43.467a12,12,0,1,1,3.515,8.478,11.916,11.916,0,0,1-3.515-8.478M978.9,56.1a12.631,12.631,0,1,0-8.933-3.7,12.551,12.551,0,0,0,8.933,3.7" transform="translate(0.813 0.813)" fill="#fff"/>
    <path id="パス_2" data-name="パス 2" d="M986.906,35.423c-2.316.759-3.593,2.475-4.593,4.751-.7,1.6-3.1,7.112-4.07,9.262-.921,2.037-3.06,4.006-5.707,3.834,1.684-.64,3.036-1.518,4.437-4.712s3.219-7.268,4.187-9.541a5.909,5.909,0,0,1,5.746-3.593" transform="translate(2.863 2.305)" fill="#fff"/>
    <path id="パス_3" data-name="パス 3" d="M974.7,42.938a.383.383,0,1,1,.385-.382.379.379,0,0,1-.385.382m0-2.662-2.256,4.013h1.176l.47-.7h1.225l.466.7h1.178Z" transform="translate(2.832 3.9)" fill="#fff"/>
    <path id="パス_4" data-name="パス 4" d="M970.457,42.938a.383.383,0,1,1,.385-.382.379.379,0,0,1-.385.382m0-2.662L968.2,44.289h1.176l.47-.7h1.221l.47.7h1.178Z" transform="translate(1.445 3.9)" fill="#fff"/>
    <path id="パス_5" data-name="パス 5" d="M1011.6,33.566h-20V37.11l15.022-.216a7.166,7.166,0,0,1-3.215,1.935h-2.5c-1.055,5.037-5.072,7.342-9.875,8.28l2.879,3.2c7.281-2.04,10.981-6.967,11.778-10.08l1.631.441a20.943,20.943,0,0,0,7.021-4.723c-1.01-.857-1.762-1.51-2.743-2.386" transform="translate(8.91 1.706)" fill="#1a1311"/>
    <path id="パス_6" data-name="パス 6" d="M1049.522,33.566h-20V37.11l15.023-.216a7.166,7.166,0,0,1-3.215,1.935h-2.5c-1.055,5.037-5.072,7.342-9.879,8.28l2.883,3.2c7.281-2.04,10.984-6.967,11.778-10.08l1.631.441a20.942,20.942,0,0,0,7.021-4.723c-1.01-.857-1.762-1.51-2.743-2.386" transform="translate(21.308 1.706)" fill="#1a1311"/>
    <path id="パス_7" data-name="パス 7" d="M1017.475,38.495a22.369,22.369,0,0,0-6.128-2.361l-2.556,3a28.915,28.915,0,0,1,6.259,2.424Z" transform="translate(14.717 2.546)" fill="#1a1311"/>
    <path id="パス_8" data-name="パス 8" d="M1020.038,35.287a23.776,23.776,0,0,0-6.326-2.424l-2.421,3a42.105,42.105,0,0,1,6.194,2.231Z" transform="translate(15.534 1.477)" fill="#1a1311"/>
    <path id="パス_9" data-name="パス 9" d="M1009.7,45.775l1.924,3.53c9.321-1.85,15.24-4.646,20.492-9.064l-2.422-3.2c-5.686,4.859-13.422,7.74-19.995,8.735" transform="translate(15.014 2.842)" fill="#1a1311"/>
    <path id="パス_10" data-name="パス 10" d="M1025.324,36.937l1.553-.981a13.4,13.4,0,0,0-2.633-1.867l-1.5.981a15.341,15.341,0,0,1,2.584,1.867" transform="translate(19.277 1.877)" fill="#1a1311"/>
    <path id="パス_11" data-name="パス 11" d="M1026.929,36.011l1.552-.979a14.374,14.374,0,0,0-2.7-1.917l-1.51.985a16.008,16.008,0,0,1,2.658,1.912" transform="translate(19.778 1.559)" fill="#1a1311"/>
    <path id="パス_12" data-name="パス 12" d="M1054.457,40.183l1.361-.959v.921Zm-2.585-1.821,1.186,1.863-1.186.036Zm1.726-1.984-1.726,1.084V36.379Zm2.22,0v1.888l-1.249-1.888Zm13.7,7.253s-.162,3.064-.191,3.593c-.028.406-.289.357-.459.357-.334,0-.5-.081-.5-.336V38.712h-7.507V42.08c0,2.675-.795,4.719-2.1,5.644V42.788l.791-.038.239-2.724-1.03.032V37.466h12.9v-2.65h-4.821V32.772h-3.957v2.044h-4.126v-.88h-3.153a4.376,4.376,0,0,0,.767-1.291h-4.025a11.011,11.011,0,0,1-.48,1.291h-3.045v6.417l-1.627.049v2.972l1.584-.081a11.138,11.138,0,0,1-1.8,5.224l2.7,2.152c1.729-1.916,2.086-5.188,2.164-7.532l.706-.036v3.972h2.509v-4.1l.751-.038V47.13c0,.261.047.671-.455.671h-2.512l.906,2.657h2.972a1.741,1.741,0,0,0,1.856-1.274l2.5,1.68c1.988-1.535,2.746-4.4,2.746-6.656V41.38h1.475v8.093c0,.506.134.985.925.985h3.544c.811,0,1.627.142,1.916-1.344a32.706,32.706,0,0,0,.523-5Zm23.094-9.932h-2.65V46.254h2.65Z" transform="translate(27.204 1.405)" fill="#1a1311"/>
    <path id="パス_13" data-name="パス 13" d="M1069.651,40.1a28.873,28.873,0,0,1-2.937,6.385l3.417,1.754a23.3,23.3,0,0,0,3-7.183Z" transform="translate(33.655 3.843)" fill="#1a1311"/>
    <path id="パス_14" data-name="パス 14" d="M1076.552,42.093h2.548v1.07h-2.548Zm2.548-5.439h-2.548v-.967h2.548Zm0,3.286h-2.548V38.8h2.548Zm8.193-7.249V47.066c0,.317-.066.632-.473.632h-3.068l.374.755a10.093,10.093,0,0,1-3.2-2.641h1.395V33.047h-8.994v1.38a34.734,34.734,0,0,0-3.165-1.571l-2.849,2.135a41.745,41.745,0,0,1,4.183,2.171l1.831-1.507v3.693a34.75,34.75,0,0,0-3.875-1.864l-2.909,2.2a31.374,31.374,0,0,1,4.31,2.135l2.474-1.969v5.961h1.571a7.842,7.842,0,0,1-3.343,2.615l2.647,2.33a11.257,11.257,0,0,0,3.258-3.957l-1.616-.989h4.627l-2.276,1.052a25.519,25.519,0,0,0,3.162,3.734l2.813-2.061.985,2h3.864c1.014,0,1.582-.366,1.582-1.648V32.69Z" transform="translate(33.6 1.42)" fill="#1a1311"/>
    <path id="パス_15" data-name="パス 15" d="M1093,38.2h2.2v0l1.485,1.584h-1.542v1.31A4.359,4.359,0,0,1,1093,38.2m8.127-.463v2.044h-3.2a11.8,11.8,0,0,0,.93-2.044Zm4.654,4.727h4.545V39.781h-5.778V37.737h5.207V35.055h-5.207V32.825h-3.421v2.231h-1.594a11.258,11.258,0,0,0,.133-1.564l-2.647-.479c-.247,1.655-.609,3.832-1.821,4.881V35.521H1093V32.789h-3.546v2.732h-2.969V38.2h2.969v.011a16.94,16.94,0,0,1-3.733,5.686l1.245,3.543a22.09,22.09,0,0,0,2.488-3.328V50.6H1093V43.406a13.018,13.018,0,0,0,1.291,1.4l1.117-2.343h4.243a12.305,12.305,0,0,1-5.505,4.786l2.042,2.809a13.4,13.4,0,0,0,4.941-4.927v5.276h3.421V45.432c.965,1.684,2.686,3.907,4.151,4.627l2.171-2.682a15.462,15.462,0,0,1-5.089-4.914" transform="translate(39.868 1.452)" fill="#1a1311"/>
    <path id="パス_16" data-name="パス 16" d="M1125.124,42.026h5.941l-1.984,3.353c-1.267.021-2.513.032-3.678.032l1.62,2.9c2.411,0,12.294-.525,16.341-.868.289.4.555.779.776,1.121l4.088-1.146a57,57,0,0,0-4.437-5.3l-3.992,1.148c.462.445.949.959,1.425,1.5-1.859.212-4.613.374-7.574.483l1.913-3.232h13.254V39.192h-23.694Z" transform="translate(52.753 3.546)" fill="#1a1311"/>
    <path id="パス_17" data-name="パス 17" d="M1137.179,34.961a23.771,23.771,0,0,0,3.794,2.343h-7.345a19,19,0,0,0,3.551-2.343m-7.144,3.936V40.3h14.234v-1.51c1,.423,2.062.851,3.191,1.316l2.107-2.9c-4.564-1.246-7.787-2.588-10.6-4.758h-3.959c-2.775,2.619-7.18,4.119-10.374,4.821l2.107,2.81c1.208-.41,2.294-.8,3.29-1.186" transform="translate(52.594 1.342)" fill="#1a1311"/>
    <path id="パス_18" data-name="パス 18" d="M1156.591,43.49a32.1,32.1,0,0,1-3.787-3.215,11.808,11.808,0,0,0,2.414-4.892h-3.857V32.669h-3.83v2.714h-3.162v3.008h5.435a15.423,15.423,0,0,1-6.043,4.782l1.342,3.254a13.654,13.654,0,0,0,2.392-1.178V50.7h3.866V43.416a18.112,18.112,0,0,0,2.615,2.4Z" transform="translate(58.846 1.413)" fill="#1a1311"/>
    <path id="パス_19" data-name="パス 19" d="M1160.882,47.3V39.881h4.37V36.723h-4.37V32.67h-4.042v4.052H1153v3.158h3.843V47.3h-5.888v3.162h14.931V47.3Z" transform="translate(61.197 1.413)" fill="#1a1311"/>
    <path id="パス_20" data-name="パス 20" d="M1114.317,40.884h2.972V38.011h-10.6v2.873h3.864v4.063c-1.549.137-3.179.26-4.919.37l1.182,3.13c5.71-.543,9.8-1.119,11.838-1.5v-2.9c-1.38.183-2.817.364-4.338.532Z" transform="translate(46.38 3.16)" fill="#1a1311"/>
    <path id="パス_21" data-name="パス 21" d="M1126.281,42.917a12.7,12.7,0,0,1-.3,3.255c-.218.564-.632.468-.949.143-2-2.022-2.537-5.248-2.675-7.846h7.327V35.575h-7.374v-2.72h-3.991v2.72h-12.35v2.894h12.363a19.353,19.353,0,0,0,1.1,5.979c1.2,3.57,4.14,6.3,6.847,6.322s3.544-3.519,3.544-6.872Z" transform="translate(46.491 1.474)" fill="#1a1311"/>
    <path id="パス_22" data-name="パス 22" d="M1124.59,34.126l-1.8-1.814-3.272.73,1.627,1.913Z" transform="translate(50.919 1.296)" fill="#1a1311"/>
  </g>
</svg>
