<svg class="c-hd__logo" xmlns="http://www.w3.org/2000/svg" viewBox="0 0 854 84">           <defs><style>.cls-1{fill:currentColor;}</style></defs>           <g>             <path class="cls-1" d="M196.57,3.56H185a1.94,1.94,0,0,0-1.42.6l-28.2,28.6a2,2,0,0,1-2.84,0l-28.2-28.6a1.94,1.94,0,0,0-1.42-.6H111.35a2,2,0,0,0-1.42,3.32l32.71,33.47a4.08,4.08,0,0,1,0,5.66L110,80a2,2,0,0,0,1.42,3.33h11.95a2,2,0,0,0,1.42-.6l27.8-29.06a2,2,0,0,1,2.84,0l27.8,29.06a2,2,0,0,0,1.43.6h11.94A2,2,0,0,0,198,80L165.28,46a4.09,4.09,0,0,1,0-5.66L198,6.88a2,2,0,0,0-1.42-3.32"/>             <path class="cls-1" d="M219.54,81V5.91a2.36,2.36,0,0,1,2.36-2.35h70.55A2.42,2.42,0,0,1,294.82,6v5.68A2.5,2.5,0,0,1,292.45,14H234.94a2.35,2.35,0,0,0-2.35,2.35V36.1a2.35,2.35,0,0,0,2.35,2.35h50.35a2.35,2.35,0,0,1,2.35,2.35v5.28a2.35,2.35,0,0,1-2.35,2.35H234.94a2.35,2.35,0,0,0-2.35,2.35V70.52a2.35,2.35,0,0,0,2.35,2.35h57.51a2.44,2.44,0,0,1,2.37,2.38v5.61a2.53,2.53,0,0,1-2.38,2.46H221.9A2.36,2.36,0,0,1,219.54,81"/>             <path class="cls-1" d="M316.43,81V5.91a2.35,2.35,0,0,1,2.35-2.35h8.35a2.35,2.35,0,0,1,2.35,2.35V70.52a2.35,2.35,0,0,0,2.35,2.35h50.56a2.36,2.36,0,0,1,2.29,2.89l-1.33,5.74a2.35,2.35,0,0,1-2.3,1.82H318.78A2.35,2.35,0,0,1,316.43,81"/>             <path class="cls-1" d="M508.35,43.17a2.35,2.35,0,0,0,2.35,2.35h26.39c9.73,0,14.1-1,18-3.25,4.37-2.57,6.39-7.17,6.39-14,0-8.81-3.15-11.62-7.06-13.48a10.43,10.43,0,0,0-4.09-.82H510.7a2.45,2.45,0,0,0-2.35,2.34ZM495.3,81V5.91a2.36,2.36,0,0,1,2.36-2.35h54.66c17.16,0,21.48,14.94,21.48,24.72,0,21.08-9.29,27.61-36.56,27.61L510.69,56a2.36,2.36,0,0,0-2.34,2.36V81A2.35,2.35,0,0,1,506,83.32h-8.34A2.36,2.36,0,0,1,495.3,81"/>             <path class="cls-1" d="M775.92,81V5.91a2.35,2.35,0,0,1,2.35-2.35h73.35A2.43,2.43,0,0,1,854,6v5.68a2.53,2.53,0,0,1-2.37,2.3h-60.3A2.35,2.35,0,0,0,789,16.36V36.1a2.35,2.35,0,0,0,2.35,2.35h53.14a2.36,2.36,0,0,1,2.36,2.35v5.28a2.36,2.36,0,0,1-2.36,2.35H791.32A2.36,2.36,0,0,0,789,50.79V70.52a2.35,2.35,0,0,0,2.35,2.35h60.3A2.43,2.43,0,0,1,854,75.25v5.61a2.52,2.52,0,0,1-2.38,2.47H778.27A2.36,2.36,0,0,1,775.92,81"/>             <path class="cls-1" d="M716.78,83.32c-17.93,0-33.12-13.74-33.12-39.39s13-40.38,33.15-40.38h35A2.45,2.45,0,0,1,754,5.92l-.83,5.45A2.55,2.55,0,0,1,750.84,14l-31.08,0c-7.26,0-23.89,1.81-23.94,29.52-.06,24.67,17,29.32,24,29.32h31.72a2.21,2.21,0,0,1,2.23,2.38l.83,5.66a2.52,2.52,0,0,1-2.35,2.41Z"/>             <path class="cls-1" d="M606.73,57H641.5a2.35,2.35,0,0,0,2-3.55L626.15,23.9a2.35,2.35,0,0,0-4.06,0L604.71,53.41a2.35,2.35,0,0,0,2,3.55m53.69,25.19-8.31-14.27a2.33,2.33,0,0,0-2-1.17H598.16a2.36,2.36,0,0,0-2,1.17l-8.3,14.27a2.34,2.34,0,0,1-2,1.17H577a2.35,2.35,0,0,1-2-3.54L616.17,9.51a2.37,2.37,0,0,0,0-2.4L614,3.56a2.36,2.36,0,0,1,2-3.56h9a2.37,2.37,0,0,1,2,1.16l46.2,78.62a2.35,2.35,0,0,1-2,3.54h-8.8a2.33,2.33,0,0,1-2-1.17"/>             <path class="cls-1" d="M32.1,57H66.87a2.36,2.36,0,0,0,2-3.55L51.51,23.9a2.34,2.34,0,0,0-4,0L30.07,53.41a2.36,2.36,0,0,0,2,3.55M85.78,82.15l-8.3-14.27a2.34,2.34,0,0,0-2-1.17H23.52a2.34,2.34,0,0,0-2,1.17l-8.3,14.27a2.35,2.35,0,0,1-2,1.17H2.36a2.35,2.35,0,0,1-2-3.54L41.54,9.51a2.37,2.37,0,0,0,0-2.4L39.39,3.56a2.36,2.36,0,0,1,2-3.56h9a2.34,2.34,0,0,1,2,1.16L98.64,79.78a2.35,2.35,0,0,1-2,3.54H87.82a2.35,2.35,0,0,1-2-1.17"/>             <path class="cls-1" d="M449.42,39.75,425.6,34.52c-11.48-2.6-13.83-6.46-13.83-11.45,0-5.51,3.32-8.31,9.87-8.31h44.08a3.12,3.12,0,0,0,3-3.81L467.7,6.22a3.11,3.11,0,0,0-3.05-2.44H420.3c-13.17,0-20.73,6.87-20.73,18.85s7.4,19.75,22,22.94l23.71,5.23c11.54,2.52,15.83,6,15.83,12.68,0,6-3.23,8.87-9.87,8.87H403.78a3.1,3.1,0,0,0-3,2.43l-1.07,4.74a3.11,3.11,0,0,0,3,3.8h49.87c13.57,0,20.74-6.78,20.74-19.62,0-12.47-8-20.53-23.9-24"/>           </g>         </svg>
