<svg id="logo_pc" xmlns="http://www.w3.org/2000/svg" xmlns:xlink="http://www.w3.org/1999/xlink" width="364" height="50.001" viewBox="0 0 364 50.001">
  <defs>
    <clipPath id="clip-path">
      <rect id="長方形_3415" data-name="長方形 3415" width="364" height="50.001" fill="none"/>
    </clipPath>
  </defs>
  <g id="グループ_3156" data-name="グループ 3156" clip-path="url(#clip-path)">
    <path id="パス_6196" data-name="パス 6196" d="M99.295,4.292H96.95V8.33h2.345m-3.81-4.038H93.213V8.33h2.271Zm4.1,6.021c.513,1.175,1.1,2.937,1.685,4.626l-1.392.587a2.2,2.2,0,0,0-.293-1.468c-1.758.294-6.374.881-8.133,1.175l-.293-1.4c.879,0,3.81-.294,4.323-.294V9.431H91.748V3.117h3.737V.18H96.95V3.117h3.737V9.431H96.95v3.818c.293,0,1.465-.294,2.345-.294a14.336,14.336,0,0,0-.879-2.056Zm-13.848,0a9.592,9.592,0,0,0,3.737-3.745,11.47,11.47,0,0,0-.586-2.276A8.425,8.425,0,0,1,86.546,5.98l-.513-1.175a10.2,10.2,0,0,0,2.271-1.4,5.723,5.723,0,0,0-1.758-2.35L87.425.18a13.244,13.244,0,0,1,2.052,2.056A16.858,16.858,0,0,0,90.649.18l1.1.294A9.252,9.252,0,0,1,89.77,3.411a8.224,8.224,0,0,1,.879,2.57,17.628,17.628,0,0,1,.513,4.332c0,2.643-.513,5.213-2.564,5.213H86.839l-.293-1.468H88.3c.586,0,1.465-.22,1.465-4.038V8.33a33.014,33.014,0,0,1-3.224,3.157Z" transform="translate(18.961 0.04)" fill="#333"/>
    <path id="パス_6197" data-name="パス 6197" d="M103.8,12.368a21.755,21.755,0,0,0-1.758-6.975L103.5,5.1a30.448,30.448,0,0,1,1.758,6.975M107.533.18V2.823h6.374V4H100.059V2.823h6.081V.18Zm.293,13.363a38.064,38.064,0,0,0,2.345-8.737l1.392.294a33.06,33.06,0,0,1-2.271,8.444h5.2v1.1H99.18v-1.1Z" transform="translate(21.934 0.04)" fill="#333"/>
    <path id="パス_6198" data-name="パス 6198" d="M127.107,2.236h-8.353V1.061h8.353m.586,5.8h-2.564v7.2c0,.881-.293,1.468-1.465,1.468h-2.857V13.837l2.564.22c.293,0,.293-.22.293-.514V6.861h-5.788V5.393h9.818ZM112.38,4A11.5,11.5,0,0,0,116.19.18l1.1.294a11.1,11.1,0,0,1-4.03,4.626Zm0,4.626a15.63,15.63,0,0,0,4.4-5.213l1.1.881c-.879,1.4-1.392,1.982-1.685,2.57v8.664h-1.465v-6.9c-.879.808-1.465,1.1-1.758,1.689Z" transform="translate(24.853 0.04)" fill="#333"/>
    <path id="パス_6199" data-name="パス 6199" d="M135.7,4.292a8.493,8.493,0,0,0-.586,1.4,10.617,10.617,0,0,0,1.978,4.626,12.761,12.761,0,0,0,1.758-6.021m2.345-1.468V4.292h-1.172a14.962,14.962,0,0,1-2.052,7.2,6.472,6.472,0,0,0,3.224,2.57l-.586,1.468a17.229,17.229,0,0,1-3.517-2.863,18.389,18.389,0,0,1-4.323,2.863l-.806-1.468a7.432,7.432,0,0,0,4.323-2.57,10.142,10.142,0,0,1-2.052-4.332,4.053,4.053,0,0,1-.879,1.175l-1.172-.587c.293-.587.586-.587.586-.881H130.5v5.213a24.227,24.227,0,0,1,2.857-.587v1.175a41.892,41.892,0,0,1-7.18,1.4l-.293-1.1c.293,0,.586-.294.879-.294V4.585h1.1v8.076a3.915,3.915,0,0,1,1.465-.294V2.236h-3.151V.767h7.18V2.236H130.5V5.687h2.271V6.861A13.09,13.09,0,0,0,135.112.18l1.465.294a9.1,9.1,0,0,1-.586,2.35Z" transform="translate(27.838 0.04)" fill="#333"/>
    <path id="パス_6200" data-name="パス 6200" d="M151.243,9.725a17.672,17.672,0,0,1,3.151,5.213l-1.172.587c-.293-.294-.293-.881-.586-1.468a35.553,35.553,0,0,1-9.232.881v-1.4h1.172A40.875,40.875,0,0,0,146.92,8.33H143.4V7.155h4.909V4h-4.03V2.823h4.03V.18h1.465V2.823h4.03V4h-4.03V7.155h4.616V8.33h-6.081a33.153,33.153,0,0,1-2.271,5.213,45.356,45.356,0,0,0,6.008-.294s-1.1-1.762-1.978-2.937m-7.473-6.9a8.082,8.082,0,0,0-2.638-2.056l.586-.881A11.727,11.727,0,0,1,143.4,1.942Zm-.586,4.038a12.807,12.807,0,0,0-2.931-1.762l.879-.881a13.678,13.678,0,0,1,2.931,1.468Zm-2.931,6.608c1.465-1.4,2.345-3.451,3.224-5.14l1.1.514a15.254,15.254,0,0,1-3.444,5.8Z" transform="translate(30.757 0.04)" fill="#333"/>
    <path id="パス_6201" data-name="パス 6201" d="M160.933.18V2.236a12.63,12.63,0,0,0,1.758,6.681c.806,1.982,2.564,3.745,5.422,5.14l-1.1,1.468a12.891,12.891,0,0,1-6.667-9.251,11.935,11.935,0,0,1-6.887,8.958l-.879-1.175a12,12,0,0,0,5.715-5.727,15.76,15.76,0,0,0,1.172-6.094V.18" transform="translate(33.743 0.04)" fill="#333"/>
    <path id="パス_6202" data-name="パス 6202" d="M100.634,36.392v2.056H112.21V36.392m-11.576-2.35H112.21V32.354H100.634ZM115.361,30V42.78c0,3.157-.293,3.451-3.444,3.451h-3.444l-.586-2.863h3.737c.586,0,.586-.587.586-1.175V40.724H100.634v5.507H97.776V30Zm.879-10.059h-8.06v1.982h7.473v2.35H108.18v1.689h8.939v2.643h-21.1V25.966h8.939V24.277h-7.18v-2.35h7.18V19.945H96.6V17.3h8.353V15.54h3.224V17.3h8.06ZM94.626,25.672a18.3,18.3,0,0,0-.879-3.157V46.231H90.3V15.54h3.444v6.094l1.978-.881a17.6,17.6,0,0,1,1.465,4.038ZM85.98,30.3c.806-2.276.806-5.507.806-8.076h2.638c0,6.094-.293,8.076-.879,9.545Z" transform="translate(19.014 3.476)" fill="#333"/>
    <path id="パス_6203" data-name="パス 6203" d="M136.233,32.06a15.358,15.358,0,0,0,1.758,4.038,26.209,26.209,0,0,0,1.465-4.626H132.5V46.231h-3.151V16.421h12.969c0,1.468,0,7.269-.586,8.958a2.4,2.4,0,0,1-2.564,1.762h-4.323l-.586-3.157H137.7c1.172,0,1.465,0,1.758-4.332H132.5v8.958h10.4c-.293,1.982-.879,6.9-2.931,10.646a26.213,26.213,0,0,0,4.1,3.818l-1.758,3.157a23.7,23.7,0,0,1-4.03-3.745,17.442,17.442,0,0,1-3.444,3.745l-2.052-2.863a11.17,11.17,0,0,0,3.444-3.818,25.828,25.828,0,0,1-2.857-6.608m-15.313-6.094a28.411,28.411,0,0,1,.879,4.332h3.737a19.339,19.339,0,0,0,.586-4.332Zm1.172-11.307h3.151v2.35h5.2v3.157h-5.2v2.937h6.374v2.863h-2.052a35.438,35.438,0,0,0-.806,4.332h2.564v3.157h-6.081v3.231h5.2v3.157h-5.2v5.507h-3.151V40.724h-5.5V37.567h5.5V34.336h-6.081V31.179h2.638a12.66,12.66,0,0,0-.879-4.332H112.86V23.984h6.374V21.047h-5.5V17.89h5.5Z" transform="translate(24.959 3.476)" fill="#333"/>
    <path id="パス_6204" data-name="パス 6204" d="M165.9,16.421v19.09c0,.587,0,.881.586.881h.586a.631.631,0,0,0,.586-.587c0-.294,0-.881.293-4.626l2.857.587c0,1.175-.293,6.094-1.1,6.975a2.056,2.056,0,0,1-1.758.808H164.8a2.436,2.436,0,0,1-2.052-2.276V19.652h-4.323v6.314a48.267,48.267,0,0,1-.879,6.975,16.648,16.648,0,0,1-3.151,6.608l-2.857-2.276c1.685-1.762,3.737-4.332,3.737-11.6V16.421m-9.525,6.094c-.293,2.056-.879,3.745-.879,4.038a41.082,41.082,0,0,0,2.345,7.783,33.893,33.893,0,0,0,2.564-11.821Zm-6.667,8.958c2.345-3.451,3.81-6.9,4.03-15.933h3.224a19.533,19.533,0,0,1-.293,3.818h7.18c-.293,5.433-.879,12.408-3.737,18.209a14.364,14.364,0,0,0,10.4,4.626h10.917l-.586,3.451H159.888a16.961,16.961,0,0,1-12.456-5.507,23.274,23.274,0,0,1-5.715,6.094l-2.052-3.157a21.147,21.147,0,0,0,5.788-5.8,16.246,16.246,0,0,1-2.345-5.8,11.992,11.992,0,0,1-1.685,2.863Z" transform="translate(30.757 3.476)" fill="#333"/>
    <path id="パス_6205" data-name="パス 6205" d="M188.807,25.511v3.524h4.323V25.511m-4.323-2.863h4.323V19.2h-4.323Zm-7.766,6.388h4.323V25.511H181.04Zm0-6.388h4.323V19.2H181.04Zm-2.931-6.388H196.06V31.9h-7.254V35.35h7.767v2.937h-7.767v3.745h8.06v3.157H175.838V42.031h9.525V38.287H177.89V35.35h7.473V31.9h-7.254ZM166.02,40.269c.879-.294,1.172-.294,4.03-1.175V30.137h-3.444V26.98h3.444V20h-3.737V16.847h10.7V20h-3.737V26.98h3.151v3.157h-3.151v7.856a22.032,22.032,0,0,1,3.737-1.468v3.157a83.038,83.038,0,0,1-10.7,3.745Z" transform="translate(36.715 3.637)" fill="#333"/>
    <path id="パス_6206" data-name="パス 6206" d="M209.079,37.567V41.6h5.2V37.567m-5.2-2.937h5.2V30.592h-5.2Zm0-6.608h5.2V23.984h-5.2Zm2.345-11.894a24.1,24.1,0,0,1-1.758,4.919h4.323a49.622,49.622,0,0,0,2.052-5.507l3.151.881c0,.587-1.172,2.937-1.685,4.626h6.008v2.937h-6.008v4.038h5.129v2.57h-5.129V34.63h5.129v2.937h-5.129V41.6h6.3v2.863H209.079v1.762h-3.151v-18.8a10.315,10.315,0,0,1-1.758,1.982l-2.271-2.57c1.758-1.762,4.616-4.332,6.374-11.307ZM192.96,32.647c1.172-.294,2.271-.587,4.03-1.175v-7.2h-4.03V21.047h4.03V15.54h3.444v5.507h3.224v3.231h-3.224v6.314a29.156,29.156,0,0,1,3.224-1.175l.513,2.937a11.335,11.335,0,0,1-3.737,1.468v9.545a2.594,2.594,0,0,1-2.857,2.863h-3.737l-.586-3.451h2.857a.778.778,0,0,0,.879-.881V34.924a16.649,16.649,0,0,1-3.737,1.175Z" transform="translate(42.673 3.476)" fill="#333"/>
    <path id="パス_6207" data-name="パス 6207" d="M232.922,33.876v3.157h6.008V33.876m-6.008-2.643h6.008V28.369h-6.008Zm0-5.8h6.008v-2.57h-6.008Zm-3.151.294c-.879.881-1.172,1.468-2.052,1.762l-2.345-2.643c1.465-.808,4.616-3.451,7.254-9.545l3.151,1.175a23.623,23.623,0,0,1-1.685,3.231h4.616a14.5,14.5,0,0,0,1.978-4.112l3.151.881a27.111,27.111,0,0,1-1.392,3.231h6.887v3.157H241.86v2.57h6.594v2.937H241.86v2.863h6.594v2.643H241.86v3.157h8.06V39.9H229.771Zm-7.254-9.839c2.052,1.762,2.857,3.231,4.909,5.8l-2.857,2.056a22,22,0,0,0-4.323-5.507Zm-2.564,12.188h6.3v8.958c0,2.57,2.638,5.213,7.547,5.213h17l-.586,3.157H233.8c-2.345,0-6.374-.294-8.133-3.451-.806,1.689-2.858,3.157-4.616,4.332l-1.392-3.451c.586-.587,1.978-1.468,3.444-2.643V31.526h-3.151Z" transform="translate(48.578 3.423)" fill="#333"/>
    <path id="パス_6208" data-name="パス 6208" d="M270.592,28.369c-.293,0-2.857.294-3.151.294a15.183,15.183,0,0,1,.586,2.863h4.323c-1.172-.881-1.758-1.175-2.638-1.762m.586-6.314a15.575,15.575,0,0,0-3.444-3.231,46.174,46.174,0,0,0,.586,6.094h.293c1.465-1.689,1.978-2.276,2.564-2.863m-15.533,3.157a15.058,15.058,0,0,0,2.564-2.863A15.443,15.443,0,0,0,253.886,20l1.758-2.056c.22.294.513.587.806.587A15.418,15.418,0,0,0,258.5,15.3l2.271,1.175a20.075,20.075,0,0,1-2.564,3.745l1.172,1.175a17.977,17.977,0,0,1,1.978-2.863l2.052,1.175a53.682,53.682,0,0,1-5.5,6.9h2.857a5.547,5.547,0,0,1-.513-1.762l1.978-.514A19.067,19.067,0,0,1,264,29.25l-2.345.808a2.413,2.413,0,0,1-.293-1.4c-.293,0-6.3.587-6.887.587l-.293-2.643Zm8.06,15.052a10.588,10.588,0,0,0-3.444-2.643,15.454,15.454,0,0,1-2.931,7.269l-2.271-2.643c1.978-2.57,2.271-4.332,2.271-9.251h-.806V32.114L254.18,34.1c-.293-.808-.879-1.689-1.465-3.157V46.284h-2.857v-13a22.445,22.445,0,0,1-2.052,5.727l-1.685-4.332a28.65,28.65,0,0,0,3.444-10.059h-3.151V21.394h3.444v-5.8h2.857v5.8h2.345v3.231h-2.345v1.4a25.6,25.6,0,0,0,3.151,5.507h9.012C264,27.488,263.7,21.688,263.7,15.594h3.151V20l1.758-2.056c.293.294.293.587.586.587a21.166,21.166,0,0,0,1.685-3.231l2.345.881a11.66,11.66,0,0,1-2.638,4.038,2.29,2.29,0,0,1,1.172,1.175,35.778,35.778,0,0,0,2.271-3.157l2.052,1.175a48.592,48.592,0,0,1-5.5,6.608h3.444a5.793,5.793,0,0,0-.513-1.689l1.978-.881a20.655,20.655,0,0,1,2.052,5.213l-2.345.808c-.293-.808-.293-1.1-.586-1.4-.806,0-1.685.294-2.564.294.879.294.879.587,2.564,1.689l-1.392,1.468h4.03V34.39h-8.646a16.518,16.518,0,0,0,1.1,4.112,35.122,35.122,0,0,0,2.638-3.524l2.857,1.175a14.516,14.516,0,0,1-4.323,5.213c.586.587,1.172,1.762,2.052,1.762s1.685-2.35,1.978-3.818l2.345,2.35c-.879,3.745-2.345,4.626-4.323,4.626-2.345,0-3.444-.881-4.616-2.863a38.873,38.873,0,0,1-6.374,2.863l-1.172-2.863a17.452,17.452,0,0,0,6.374-2.937A28.735,28.735,0,0,1,265.1,34.39h-5.422v1.762a24.932,24.932,0,0,1,5.2,2.863Z" transform="translate(54.429 3.423)" fill="#333"/>
    <path id="パス_6209" data-name="パス 6209" d="M294.781,36.392v2.056H299.1V36.392m-4.323-2.35H299.1V32.06h-4.323Zm-3.81-8.37h4.909V23.69h-4.909Zm0-4.332h4.909V19.652h-4.909ZM287.82,38.448h4.323V36.392H287.82Zm0-4.405h4.323V32.06H287.82Zm0-18.5h3.151V17.3h4.909V15.54H299.1V17.3h4.03v2.35H299.1V21.34h2.858v2.35H299.1v1.982h4.616v2.35h-8.939v1.689h7.18v8.737h1.758v2.57h-1.758v2.863c0,1.175-.293,2.35-2.564,2.35h-4.323l-.293-2.863h3.151c1.172,0,1.172-.294,1.172-.881V41.018H287.82v5.213h-3.151V41.018h-2.052v-2.57h2.052V29.711h7.473V28.022H283.2v-2.35h4.616V23.69h-3.151V21.34h3.151V19.652h-4.03V17.3h4.03ZM272.58,34.63a20.722,20.722,0,0,0,4.323-9.839h-3.81V21.634h4.1V15.54h3.151v6.094H283.2v3.157h-2.857v.881a14.29,14.29,0,0,0,3.737,6.094l-1.465,3.157a16.607,16.607,0,0,1-2.271-4.332V46.231H277.2V31.473c-.879,2.863-1.465,5.507-3.224,7.783Z" transform="translate(60.281 3.476)" fill="#333"/>
    <path id="パス_6210" data-name="パス 6210" d="M0,4.038V45.962A3.933,3.933,0,0,0,4.03,50a4.169,4.169,0,0,0,4.03-4.038V4.038A4.116,4.116,0,0,0,4.03,0,3.891,3.891,0,0,0,0,4.038" fill="#ff1a00"/>
    <path id="パス_6211" data-name="パス 6211" d="M13.2,17.915V45.962A3.977,3.977,0,0,0,17.23,50a3.933,3.933,0,0,0,4.03-4.038V17.915a9.818,9.818,0,1,1,19.636,0,9.736,9.736,0,0,1-9.818,9.839H28.22a4.28,4.28,0,0,0-4.03,4.038,4.392,4.392,0,0,0,4.03,4.332h2.857A17.848,17.848,0,0,0,48.955,17.915,17.781,17.781,0,0,0,31.078,0,17.968,17.968,0,0,0,13.2,17.915" transform="translate(2.919)" fill="#ff1a00"/>
    <path id="パス_6212" data-name="パス 6212" d="M55.294,3.451,41.153,44.494c0,.587-.293.881-.293,1.468A4.118,4.118,0,0,0,44.89,50a4.571,4.571,0,0,0,4.03-2.643L60.13,14.1l5.788,16.226h-7.18a4.184,4.184,0,0,0-4.03,4.332,4.068,4.068,0,0,0,4.03,4.038h9.818l3.151,8.664A4.073,4.073,0,0,0,75.443,50a3.933,3.933,0,0,0,4.03-4.038,2.652,2.652,0,0,0-.293-1.468L65.039,3.451A4.958,4.958,0,0,0,60.13,0a5.434,5.434,0,0,0-4.836,3.451" transform="translate(9.036)" fill="#ff1a00"/>
  </g>
</svg>
