<?xml version="1.0" encoding="UTF-8" standalone="no"?>
<!DOCTYPE svg PUBLIC "-//W3C//DTD SVG 1.1//EN" "http://www.w3.org/Graphics/SVG/1.1/DTD/svg11.dtd">
<svg width="100%" height="100%" viewBox="0 0 2048 600" version="1.1" xmlns="http://www.w3.org/2000/svg" xmlns:xlink="http://www.w3.org/1999/xlink" xml:space="preserve" xmlns:serif="http://www.serif.com/" style="fill-rule:evenodd;clip-rule:evenodd;stroke-linejoin:round;stroke-miterlimit:2;">
    <g transform="matrix(0.324129,0,0,0.324129,8.8581,70.3972)">
        <g id="経産省.svg">
            <g>
                <g transform="matrix(0.981699,0,0,1.182,47.0251,-155.067)">
                    <path d="M1636.32,1114.64L1634.08,1114.64L1042.76,827.524C989.353,801.594 923.379,801.594 869.976,827.524L278.651,1114.64L275.638,1114.64L275.638,458.209L865.395,739.464C918.209,764.652 983.045,764.652 1035.86,739.464L1636.32,453.103L1636.32,1114.64Z" style="fill:rgb(0,151,208);"/>
                </g>
                <g transform="matrix(1.00813,0,0,1.00832,2.69693,-43.2845)">
                    <path d="M982.11,52.506L335.238,414.649L606.293,577.062C640.572,594.016 687.364,608.943 739.827,570.634L1314.48,242.738L982.11,52.506Z" style="fill:rgb(0,151,208);"/>
                </g>
                <g transform="matrix(-1.00488,-1.50925e-18,-1.50925e-18,-1.0172,1957.73,1587.1)">
                    <path d="M982.11,52.506L335.238,414.649L606.293,577.062C640.572,594.016 687.364,608.943 739.827,570.634L1314.48,242.738L982.11,52.506Z" style="fill:rgb(0,151,208);"/>
                </g>
            </g>
        </g>
    </g>
    <g transform="matrix(0.970443,0,0,1.01161,-278.637,76.9371)">
        <g transform="matrix(1,0,0,1,939,311)">
            <g transform="matrix(1.03046,0,0,0.988526,-651.876,-387.054)">
                <path d="M659.103,307.167L693.527,300.74L693.5,392.802L714.2,393.6L714.219,295.418L727.506,292.825L731.573,309.311L750.481,300.2C743.815,285.16 736.335,271.525 728.004,259.363L717.984,265.053L724.183,282.643L695.763,284.039C695.763,284.039 742.946,230.394 745.275,226.995L722.533,214.092L704.463,243.521L692.812,232.347C692.812,232.347 719.323,200.057 721.419,196.415L699.404,187.293L680.509,224.53L665.234,212.887L658.004,222.898L690.389,264.034L675.065,285.05L657.169,285.219L659.103,307.167ZM812.393,317L813.557,288.6L788.556,288.593L788.6,317L749.059,316.986L749.1,328.521L788.219,328.406L788.722,373.3L733.849,373.3L733.8,384L860.7,384L860.685,373.3L812.253,373.319L812.393,328.4L852.9,328.4L852.874,317L812.393,317ZM666.442,311.251C665.419,333.727 662.819,355.586 657.153,376.249L667.291,379.89C678.404,360.096 685.126,338.366 689.66,315.671L666.442,311.251ZM718.845,312.822C724.548,332.463 726.995,343.916 729.511,364.4L750.16,352.61C745.707,337.038 738.299,322.716 730.057,308.748L718.845,312.822ZM855.22,200.377L746.067,200.398L746.1,211.796L757.579,211.8C757.579,211.8 773.492,249.181 785.217,260.293C778.151,266.134 757.935,279.355 746.116,282.78L753.529,295.868C753.529,295.868 788.918,280.033 801.922,271.185C817.272,281.062 855.433,294.644 855.433,294.644L863.131,284.344C853.668,282.426 824.919,269.461 814.568,260.914C827.747,252.077 851.394,211.534 855.22,200.377ZM823.028,211.34C816.161,226.137 811.225,234.152 801.139,246.79C791.268,234.768 786.332,226.445 780.323,211.34L823.028,211.34Z"/>
            </g>
            <g transform="matrix(1.03046,0,0,0.988526,-651.876,-387.054)">
                <path d="M1000.44,262.694C984.053,270.005 944.158,280.286 944.158,280.286C947.824,286.683 949.333,286.089 950.843,293.4C958.822,292.029 959.011,290.643 963.971,289.5C964.707,353.164 953.113,373.31 934.669,385.383L947.176,397.232C947.176,397.232 976.289,374.563 982.112,355.6L1049.93,355.584L1049.4,394.3L1073.35,394.323L1073.47,288.848C1080.37,290.676 1082.24,291.554 1091.3,293.382C1093.89,283.101 1092.74,284.627 1097.91,276.63C1075.49,274.117 1058.67,270.24 1040.34,262.7C1052.2,252.876 1061.04,236.61 1067.08,226.1L1092.95,226.1L1092.95,213.7L1030.6,213.725L1030.63,191.639L1006.2,191.639L1006.19,213.997L947.233,213.976L947.382,225.822L966.595,226.143C966.595,226.143 988.366,253.326 1000.44,262.694ZM935.955,298.951C924.806,324.523 896.175,373.754 890.733,379.435L912.444,390.47C918.242,381.418 936.64,329.928 948.126,303.621L935.955,298.951ZM1049.93,320.284L986.786,320.284L986.786,346.048L1049.93,346.048L1049.93,320.284ZM1050.42,307.995L988.251,309.272C988.46,301.236 987.607,284.614 987.607,284.614L1018.52,271.499L1050.57,283.493L1050.42,307.995ZM893.628,246.089C911.146,252.039 925.801,259.53 937.77,268.463L924.067,288.304C915.997,278.864 901.496,266.847 887.11,257.119L893.628,246.089ZM1037.8,228.228C1032.96,235.937 1028.12,240.609 1017.38,248.319C1007.07,241.544 1001.18,236.171 995.495,228.228L1037.8,228.228ZM897.221,197.462C910.082,206.704 922.894,218.318 929.927,230.993L944.289,214.818C937.887,205.319 923.458,198.247 907.04,191.776L897.221,197.462Z"/>
            </g>
            <g transform="matrix(1.03046,0,0,0.988526,-651.876,-387.054)">
                <path d="M1135.12,223.619L1160.21,223.619L1180.13,259.881L1133.29,259.881L1133.29,268.448L1133.91,268.448C1132.49,324.556 1138.83,343.091 1116.86,382.195L1127.61,390.37C1160.02,352.123 1157.19,327.315 1156.37,268.448L1318.1,268.448L1318.1,259.881L1249.09,259.881L1283.72,235.478L1267.95,223.619L1308.1,223.619L1308.1,212.985L1231.03,212.985L1231.03,188.967L1208.07,188.967L1208.07,212.985L1135.12,212.985L1135.12,223.619ZM1188.57,311.47L1225.98,311.47L1225.98,336.238L1173.12,336.238L1173.12,347.58L1225.98,347.58L1225.98,375.982L1155.62,375.982L1155.62,388.146L1319.3,388.146L1319.3,375.982L1247.83,375.982L1247.83,347.58L1294.74,347.58L1294.74,336.238L1247.83,336.238L1247.83,311.47L1306.3,311.47L1306.3,301.033L1247.83,301.033L1247.83,277.761L1225.98,277.761L1225.98,301.033L1196.49,301.033L1211.48,281.281L1185.14,274.537C1185.14,274.537 1173.18,317.755 1162.09,327.8L1169.71,336.327L1188.57,311.47ZM1259.02,223.619L1176.33,223.619C1183.86,228.648 1193.7,240.075 1203.63,251.758L1199.44,259.881L1241.97,259.881L1236.76,253.669L1259.02,223.619Z"/>
            </g>
        </g>
        <g transform="matrix(1.03046,0,0,0.988526,287.124,-76.0543)">
            <path d="M1435.42,293.061L1370.89,293.061L1370.89,304.99L1435.42,304.99L1435.42,320.531L1348.39,320.531L1348.39,331.935L1415.04,331.935C1396.83,351.087 1377.6,368.814 1353.01,378.899L1360.67,389.915C1396.32,379.092 1415.93,358.902 1435.42,338.649L1435.42,396.023L1460.62,396.023L1460.62,340.681C1485.17,365.423 1509.88,381.638 1534.76,389.422L1542.43,378.311C1522.43,368.882 1503.03,353.915 1484.4,331.935L1549.5,331.935L1549.5,320.531L1460.62,320.531L1460.62,304.99L1525.63,304.99L1525.63,293.061L1460.62,293.061L1460.62,278.472L1535.25,278.472L1535.25,265.463L1487.67,265.463L1506.29,246.388L1495.32,243.144L1542.84,243.144L1542.84,231.576L1481.88,231.576L1481.88,192.287L1458.71,192.287L1458.71,231.576L1440.02,231.576L1440.02,192.082L1418.31,192.082L1418.31,231.576L1353.7,231.576L1353.7,243.144L1393.69,243.144L1406.76,265.463L1359.64,265.463L1359.64,278.472L1435.42,278.472L1435.42,293.061ZM1424.78,265.463L1465.51,265.463L1480.74,243.144L1411.76,243.144L1430.68,262.239L1424.78,265.463ZM1371,197.189C1380.29,207.945 1387.51,220.715 1391.01,230.827L1412.98,219.171L1387.13,192.001L1371,197.189ZM1506.04,191.298C1501.89,202.502 1496.72,212.987 1486.62,220.006L1496.2,230.748L1529.15,201.903L1506.04,191.298Z"/>
        </g>
        <g transform="matrix(1.03046,0,0,0.988526,287.124,-76.0543)">
            <path d="M1690.12,239.563C1696.7,234.671 1702.96,229.461 1708.91,223.965L1730.11,237.045C1709.78,255.355 1686.75,268.518 1661.92,277.566L1752.94,277.566L1752.94,395.851L1730.05,395.851L1730.05,384.831L1632.06,384.831L1632.06,395.851L1607.09,395.851L1607.09,290.93C1597.79,292.233 1588.35,293.131 1578.82,293.668L1574.13,284C1585.59,282.723 1596.57,280.777 1607.09,278.217L1609.7,277.566C1628.12,272.872 1645.09,266.283 1660.66,258.101L1638.58,257.601C1634.8,256.202 1634.81,251.126 1635.09,245.8L1641.96,245.85C1641.75,250.145 1666.84,250.202 1666.33,246.17L1666.68,191.309L1690.38,191.3L1690.12,239.563ZM1729.05,351.539L1631.05,351.539L1631.05,374.212L1729.05,374.212L1729.05,351.539ZM1729.25,320.955L1633.07,320.955L1633.07,341.141L1729.25,341.141L1729.25,320.955ZM1729.96,288.623L1631.38,288.623L1631.38,310.096L1729.96,310.096L1729.96,288.623ZM1618.36,198.922C1606.86,218.578 1594.16,235.635 1579.12,247.641L1584.69,258.176C1606.64,247.08 1625.23,229.516 1642.99,210.339L1618.36,198.922ZM1758.52,255.472L1758.37,255.612C1758.43,255.577 1758.48,255.53 1758.52,255.472L1778.38,236.914C1761.51,222.47 1744.19,209.321 1725.71,199.474L1719.11,207.665C1738.11,225.332 1760.42,252.711 1758.52,255.472Z"/>
        </g>
    </g>
    <g transform="matrix(0.698389,0,0,0.698389,630.601,483.396)">
        <text x="0px" y="0px" style="font-family:'Helvetica-Oblique', 'Helvetica';font-style:italic;font-size:112px;">Ministry of Economy,Trade and Industry</text>
    </g>
</svg>
