<?xml version="1.0" encoding="UTF-8" standalone="no"?>
<!DOCTYPE svg PUBLIC "-//W3C//DTD SVG 1.1//EN" "http://www.w3.org/Graphics/SVG/1.1/DTD/svg11.dtd">
<svg width="100%" height="100%" viewBox="0 0 2048 600" version="1.1" xmlns="http://www.w3.org/2000/svg" xmlns:xlink="http://www.w3.org/1999/xlink" xml:space="preserve" xmlns:serif="http://www.serif.com/" style="fill-rule:evenodd;clip-rule:evenodd;stroke-linejoin:round;stroke-miterlimit:2;">
    <g id="Symbol_of_Ministry_of_Land-_Infrastructure-_Transport_and_Tourism_of_Japan.svg" serif:id="Symbol_of_Ministry_of_Land,_Infrastructure,_Transport_and_Tourism_of_Japan.svg" transform="matrix(1.62313,0,0,1.67319,328.996,303.952)">
        <g transform="matrix(1,0,0,1,-153.708,-170.153)">
            <clipPath id="_clip1">
                <rect x="0" y="0" width="307.417" height="340.306"/>
            </clipPath>
            <g clip-path="url(#_clip1)">
                <g>
                    <ellipse cx="164.042" cy="321.306" rx="111.375" ry="19" style="fill:rgb(147,148,153);"/>
                    <path d="M63.667,94.056C35.667,183.556 113.167,251.306 180.417,251.306C249.31,251.306 307.417,197.056 307.417,128.306C307.417,87.997 288.917,51.056 253.167,33.556C305.167,115.056 239.667,192.056 169.167,192.056C147.417,192.056 78.917,182.306 63.667,94.056Z" style="fill:rgb(117,182,223);fill-rule:nonzero;"/>
                    <path d="M110.792,39.806C59.667,84.556 90.167,178.806 171.417,178.806C228.917,178.806 265.417,122.056 253.417,76.306C247.667,101.306 219.917,132.806 179.417,132.806C136.417,132.806 94.667,91.306 110.792,39.806Z" style="fill:rgb(117,182,223);fill-rule:nonzero;"/>
                    <path d="M127.417,10.806C173.834,-16.694 239.167,11.306 239.167,60.806C239.167,98.973 202.334,123.139 162.417,121.306C181.334,112.473 197.917,97.806 197.917,68.306C197.917,35.64 169,8.806 127.417,10.806Z" style="fill:rgb(229,109,116);fill-rule:nonzero;"/>
                    <path d="M119.833,24.14C61.666,52.64 46.333,101.307 46.333,137.64C46.333,180.64 70.333,227.974 122.333,251.306C32.833,251.306 0,179.14 0,141.973C0,65.806 70.333,20.306 119.833,24.14Z" style="fill:rgb(117,182,223);fill-rule:nonzero;"/>
                </g>
            </g>
        </g>
    </g>
    <path d="M922.536,204.886C922.536,193.125 913.003,183.591 901.242,183.591C858.715,183.591 763.636,183.591 720.193,183.591C707.807,183.591 697.765,193.633 697.765,206.02L697.765,404.228C697.765,409.793 699.975,415.129 703.91,419.064C707.845,422.998 713.181,425.209 718.746,425.209C762.115,425.209 861.085,425.209 903.099,425.209C913.834,425.209 922.536,416.506 922.536,405.771C922.536,361.083 922.536,251.318 922.536,204.886ZM899.151,208.73L721.151,208.73L721.151,400.07L899.151,400.07L899.151,208.73ZM798.691,248.163L798.691,286.32L745.739,286.32L745.739,311.196L798.691,311.196L798.691,359.683L737.528,359.683L737.528,384.21L882.319,384.21L882.319,359.683L822.077,359.683L822.077,311.196L875.542,311.196L875.542,286.32L822.077,286.32L822.077,248.163L882.438,248.163L882.438,224.945L738.304,224.945L738.304,248.163L798.691,248.163ZM840.914,328.5C848.926,338.881 854.618,348.278 857.878,356.643L877.411,348.624C871.868,336.822 865.344,325.684 857.11,315.704L840.914,328.5Z" style="fill-opacity:0.99;"/>
    <path d="M1099.21,256.897L1099.21,179.258L1074.69,179.258L1074.69,256.897L978.364,256.897L978.364,280.581L1074.69,280.581L1074.69,402.863L963.183,402.863L963.183,426.853L1212.22,426.853L1212.22,402.863L1099.21,402.863L1099.21,280.581L1196.48,280.581L1196.48,256.897L1099.21,256.897Z" style="fill-opacity:0.99;"/>
    <path d="M1326.5,296.49L1297.56,296.4C1310.42,318.476 1324.73,339.382 1341.92,357.972C1309.4,384.129 1276.08,401.131 1241.93,408.595L1241.59,434.097C1285.18,426.562 1324.35,405.804 1360.1,374.845C1392.77,405.536 1432.42,424.745 1477.81,434.523L1476.98,407.401C1441.55,399.027 1408.05,384.738 1378.49,358.4C1395.83,340.757 1409.83,319.165 1422.85,296.4L1394.31,296.4C1384.36,312.453 1373.41,327.604 1359.6,340.178C1346.87,327.687 1335.87,313.08 1326.5,296.49ZM1323.63,234.049L1237.92,234.049L1237.92,209.708L1347.88,209.708L1347.88,178.77L1372.24,178.77L1372.24,209.708L1487.51,209.708L1487.51,234.049L1396.3,234.049C1421.9,258.582 1448.53,278.749 1477.9,287.275L1477.99,312.164C1447.64,305.246 1420.61,288.542 1395.73,265.472L1395.8,234.049L1324.12,234.049L1324.2,265.472C1299.52,288.542 1272.7,305.246 1242.6,312.164L1242.69,287.275C1271.83,278.749 1298.24,258.582 1323.63,234.049Z" style="fill-opacity:0.99;"/>
    <path d="M1515.2,272.283L1515.2,295.933L1551.84,296C1551.82,335.55 1549.73,386.157 1556.83,382.933L1514.33,405.284L1514.38,430.666L1568,402.336C1568,402.336 1584.19,428.791 1626.06,429.212C1667.93,429.634 1762.85,429.212 1762.85,429.212L1762.85,404.442C1762.85,404.442 1618.96,409.536 1596.94,396.862C1574.93,384.188 1574.93,374.186 1574.93,349.418C1574.93,334.633 1575.53,309.909 1576.01,292.381C1576.14,287.031 1574.11,281.855 1570.36,278.032C1566.62,274.209 1561.48,272.066 1556.13,272.091C1538.27,272.174 1515.2,272.283 1515.2,272.283ZM1656.03,240.739C1649.14,235.947 1642.2,233.179 1635.19,232.7L1635.23,209.358C1645.84,207.535 1659.95,213.805 1677.51,225.48L1702.92,206.47L1599.53,206.493L1599.35,183.161C1599.35,183.161 1681.33,181.877 1705.77,183.229C1718.37,183.927 1739.58,183.901 1739.68,200.086C1739.78,217.22 1695.37,240.936 1695.37,240.936L1727.56,241.244C1739.79,241.33 1749.64,251.289 1749.6,263.517C1749.51,291.65 1749.35,339.835 1749.27,367.013C1749.23,378.166 1740.16,387.182 1729.01,387.159C1716.04,387.132 1701.6,387.103 1701.6,387.103L1701.52,363.746L1726.52,363.723L1726.35,344.8L1686,344.8L1686.05,379.874L1662.06,379.8L1662.19,344.8L1620.52,344.777L1620.35,384.8L1595.39,384.8C1595.39,384.8 1596.1,304.475 1596.47,263.61C1596.58,250.741 1607.09,240.394 1619.96,240.485L1656.03,240.739ZM1727.04,304.058L1685.6,304.058L1685.6,321.692L1727.04,321.692L1727.04,304.058ZM1663.48,303.676L1620.57,303.676L1620.57,321.487L1663.48,321.487L1663.48,303.676ZM1662.99,264.17L1620.03,264.17L1620.03,280.902L1662.99,280.902L1662.99,264.17ZM1726.95,264.613L1685.79,264.613L1685.79,280.309L1726.95,280.309L1726.95,264.613ZM1522.24,178.824L1522.42,204.703C1541.65,213.464 1557.56,224.785 1575.06,239.322L1574.76,205.665C1557.37,194.416 1541.65,183.678 1522.24,178.824Z" style="fill-opacity:0.99;"/>
    <path d="M1843.29,309.655L1843.29,402.907C1843.29,409.944 1846.08,416.693 1851.06,421.669C1856.03,426.645 1862.78,429.441 1869.82,429.441C1900.71,429.441 1951.54,429.441 1983.17,429.441C1990.68,429.441 1997.88,426.459 2003.19,421.15C2008.5,415.842 2011.48,408.643 2011.48,401.136L2011.48,308.487C2011.48,293.914 1999.66,282.099 1985.09,282.099L1916.49,282.099C1935.56,272.052 1953.77,260.015 1971.24,246.07L1970.92,220.62C1993.26,233.771 2014.3,249.246 2034.91,265.463L2034.58,233.97C2010.56,216.311 1986.05,200.554 1960.42,189.157L1960.38,214.645C1962.51,215.808 1964.64,216.994 1966.75,218.202C1952.4,229.606 1937.31,240.391 1921.22,250.097C1924.24,245.122 1925.98,239.286 1925.99,233.043C1926.01,209.549 1926.03,182.094 1926.03,182.094L1901.72,182.094L1901.72,234.711C1901.72,238.492 1898.65,241.557 1894.87,241.557C1884.62,241.557 1866.47,241.557 1866.47,241.557L1866.47,265.971L1891.84,265.971C1862.42,280.03 1829.75,290.183 1792.67,294.163L1792.36,317.658C1809.97,316.245 1826.93,313.565 1843.29,309.655ZM1987.53,386.348L1866.47,386.348L1866.47,405.826L1987.53,405.826L1987.53,386.348ZM1986.12,347.102L1867.16,347.102L1867.16,362.969L1986.12,362.969L1986.12,347.102ZM1986.41,306.12L1867.17,306.12L1867.17,323.529L1986.41,323.529L1986.41,306.12ZM1847.48,194.01L1874.92,193.427C1862.66,218.973 1843.76,242.328 1789.46,262.7L1789.73,236.816C1816.29,227.966 1833.29,213.061 1847.48,194.01Z" style="fill-opacity:0.99;"/>
</svg>
