<?xml version="1.0" encoding="UTF-8"?>
<svg xmlns="http://www.w3.org/2000/svg" version="1.1" viewBox="0 0 705.12 156.63">
  <!-- Generator: Adobe Illustrator 29.3.1, SVG Export Plug-In . SVG Version: 2.1.0 Build 151)  -->
  <defs>
    <style>
      .st0, .st1 {
        fill: #c03;
      }

      .st1 {
        fill-rule: evenodd;
      }

      .st2 {
        display: none;
      }

      .st3 {
        fill: lime;
      }
    </style>
  </defs>
  <g id="_英語" data-name="英語" class="st2">
    <g>
      <g>
        <g>
          <path d="M101.33,21h5.19c3.98,0,6.73,1.29,6.73,4.83,0,2.64-1.54,3.95-3.95,4.56v.05c2.61.22,4.45,1.92,4.45,4.61,0,4.12-3.4,5.11-7.3,5.11h-5.11v-19.17ZM104.07,29.19h1.51c2.66,0,4.92-.25,4.92-3.08,0-2.28-1.95-2.86-3.54-2.86h-2.88v5.93ZM104.07,37.92h2.06c2.47,0,4.7-.52,4.7-3.1,0-2.97-2.61-3.38-4.97-3.38h-1.79v6.48Z"/>
          <path d="M116.63,26.16h2.42v2.17h.05c.69-1.46,2.17-2.5,3.65-2.5.77,0,1.15.08,1.7.19v2.31c-.47-.19-.99-.25-1.43-.25-2.31,0-3.82,2.2-3.82,5.71v6.37h-2.58v-14Z"/>
          <path d="M129.95,23.03h-2.91v-2.91h2.91v2.91ZM127.2,26.16h2.58v14h-2.58v-14Z"/>
          <path d="M143.37,38.19h-.05c-.69,1.04-2.28,2.31-4.78,2.31-4.23,0-6.01-3.76-6.01-7.58s1.98-7.08,6.04-7.08c2.44,0,3.84.96,4.64,2.25h.05v-8.51h2.58v20.6h-2.47v-1.98ZM139.14,38.41c2.91,0,4.12-2.88,4.12-5.22,0-2.61-1.35-5.27-4.15-5.27s-3.9,2.64-3.84,5.19c-.05,2.2,1.1,5.3,3.87,5.3Z"/>
          <path d="M161.95,39.56c0,4.26-2.2,6.7-7.22,6.7-1.48,0-2.77-.19-5.03-.96l.27-2.39c1.98.91,3.16,1.26,5.05,1.26,2.72,0,4.34-1.84,4.34-4.81v-1.37h-.05c-1.1,1.46-2.91,2.17-4.7,2.17-4.01,0-5.99-3.27-5.99-6.89s2.03-7.44,6.26-7.44c2.47,0,3.84.91,4.61,2.42h.06v-2.09h2.39v13.4ZM159.36,33.33c0-2.91-1.35-5.41-4.09-5.41s-3.9,2.83-3.9,5.22c0,2.64,1.48,4.94,3.9,4.94s4.09-2.14,4.09-4.75Z"/>
          <path d="M168.2,23.03h-2.91v-2.91h2.91v2.91ZM165.45,26.16h2.58v14h-2.58v-14Z"/>
          <path d="M171.46,26.16h2.5v2.22h.06c.77-1.59,2.64-2.55,4.59-2.55,3.62,0,5.24,2.25,5.24,6.01v8.32h-2.58v-7.25c0-3.27-.71-4.86-2.97-5-2.94,0-4.26,2.36-4.26,5.77v6.48h-2.58v-14Z"/>
          <path d="M199.68,39.56c0,4.26-2.2,6.7-7.22,6.7-1.48,0-2.77-.19-5.02-.96l.27-2.39c1.98.91,3.16,1.26,5.05,1.26,2.72,0,4.34-1.84,4.34-4.81v-1.37h-.06c-1.1,1.46-2.91,2.17-4.7,2.17-4.01,0-5.99-3.27-5.99-6.89s2.03-7.44,6.26-7.44c2.47,0,3.84.91,4.61,2.42h.05v-2.09h2.39v13.4ZM197.1,33.33c0-2.91-1.35-5.41-4.09-5.41s-3.9,2.83-3.9,5.22c0,2.64,1.48,4.94,3.9,4.94s4.09-2.14,4.09-4.75Z"/>
          <path d="M210.87,21h3.02l4.59,16.42h.05l4.09-16.42h3.9l4.15,16.42h.05l4.59-16.42h2.91l-5.9,19.17h-3.54l-4.17-16.75h-.05l-4.2,16.75h-3.68l-5.79-19.17Z"/>
          <path d="M245.21,25.84c4.26,0,7.11,3.08,7.11,7.33,0,4.01-2.91,7.33-7.11,7.33s-7.14-3.32-7.14-7.33c0-4.26,2.86-7.33,7.14-7.33ZM245.21,38.41c3.02,0,4.37-2.75,4.37-5.24,0-2.66-1.62-5.25-4.37-5.25s-4.39,2.58-4.39,5.25c0,2.5,1.34,5.24,4.39,5.24Z"/>
          <path d="M255.14,26.16h2.42v2.17h.06c.69-1.46,2.17-2.5,3.65-2.5.77,0,1.15.08,1.7.19v2.31c-.47-.19-.99-.25-1.43-.25-2.31,0-3.82,2.2-3.82,5.71v6.37h-2.58v-14Z"/>
          <path d="M265.55,19.57h2.58v20.6h-2.58v-20.6Z"/>
          <path d="M281.56,38.19h-.06c-.69,1.04-2.28,2.31-4.78,2.31-4.23,0-6.01-3.76-6.01-7.58s1.98-7.08,6.04-7.08c2.44,0,3.84.96,4.64,2.25h.05v-8.51h2.58v20.6h-2.47v-1.98ZM277.33,38.41c2.91,0,4.12-2.88,4.12-5.22,0-2.61-1.34-5.27-4.15-5.27s-3.9,2.64-3.84,5.19c-.05,2.2,1.1,5.3,3.87,5.3Z"/>
          <path d="M286.78,37.42c1.02.66,2.47.99,3.21.99,1.18,0,2.64-.49,2.64-2,0-2.55-6.07-2.33-6.07-6.26,0-2.91,2.17-4.31,4.94-4.31,1.21,0,2.2.25,3.21.55l-.22,2.25c-.58-.36-2.11-.71-2.72-.71-1.32,0-2.47.55-2.47,1.7,0,2.86,6.07,2.03,6.07,6.51,0,2.99-2.39,4.37-4.89,4.37-1.32,0-2.66-.14-3.84-.77l.14-2.31Z"/>
        </g>
        <g>
          <path d="M309.85,28.25h-3.29v-2.09h3.29v-1.29c0-3.4.88-5.63,4.69-5.63.66,0,1.21.08,1.73.16l-.11,2.09c-.3-.11-.8-.16-1.24-.16-2.22,0-2.5,1.43-2.5,3.32v1.51h3.71v2.09h-3.71v11.91h-2.58v-11.91Z"/>
          <path d="M324.83,25.84c4.26,0,7.11,3.07,7.11,7.33,0,4.01-2.91,7.33-7.11,7.33s-7.14-3.32-7.14-7.33c0-4.26,2.85-7.33,7.14-7.33ZM324.83,38.41c3.02,0,4.37-2.75,4.37-5.24,0-2.66-1.62-5.24-4.37-5.24s-4.39,2.58-4.39,5.24c0,2.5,1.35,5.24,4.39,5.24Z"/>
          <path d="M334.85,26.17h2.42v2.17h.05c.69-1.46,2.17-2.5,3.65-2.5.77,0,1.15.08,1.7.19v2.31c-.47-.19-.99-.25-1.43-.25-2.31,0-3.82,2.2-3.82,5.71v6.37h-2.58v-14Z"/>
          <path d="M351.97,21.01h3.02l4.59,16.42h.05l4.09-16.42h3.9l4.14,16.42h.05l4.59-16.42h2.91l-5.9,19.16h-3.54l-4.17-16.75h-.05l-4.2,16.75h-3.68l-5.79-19.16Z"/>
          <path d="M386.68,25.84c4.26,0,7.11,3.07,7.11,7.33,0,4.01-2.91,7.33-7.11,7.33s-7.14-3.32-7.14-7.33c0-4.26,2.85-7.33,7.14-7.33ZM386.68,38.41c3.02,0,4.36-2.75,4.36-5.24,0-2.66-1.62-5.24-4.36-5.24s-4.39,2.58-4.39,5.24c0,2.5,1.34,5.24,4.39,5.24Z"/>
          <path d="M397.15,26.17h2.5v2.22h.06c.77-1.59,2.64-2.55,4.58-2.55,3.62,0,5.24,2.25,5.24,6.01v8.32h-2.58v-7.25c0-3.27-.71-4.86-2.97-5-2.94,0-4.26,2.36-4.26,5.77v6.48h-2.58v-14Z"/>
          <path d="M423.63,38.19h-.05c-.69,1.04-2.28,2.31-4.78,2.31-4.23,0-6.01-3.76-6.01-7.58s1.98-7.08,6.04-7.08c2.44,0,3.84.96,4.64,2.25h.05v-8.51h2.58v20.59h-2.47v-1.98ZM419.4,38.41c2.91,0,4.12-2.88,4.12-5.22,0-2.61-1.35-5.27-4.14-5.27s-3.9,2.64-3.84,5.19c-.05,2.2,1.1,5.3,3.87,5.3Z"/>
          <path d="M441.17,39.59c-.99.36-2.11.91-4.42.91-4.97,0-7.25-3.02-7.25-7.58,0-4.14,2.61-7.08,6.56-7.08,4.67,0,6.18,3.4,6.18,7.91h-9.99c0,2.77,2.17,4.67,4.61,4.67,1.7,0,3.68-.88,4.31-1.4v2.58ZM439.5,31.82c0-2.14-1.26-3.9-3.49-3.9-2.53,0-3.57,2.09-3.76,3.9h7.25Z"/>
          <path d="M445.86,26.17h2.42v2.17h.05c.69-1.46,2.17-2.5,3.65-2.5.77,0,1.15.08,1.7.19v2.31c-.47-.19-.99-.25-1.43-.25-2.31,0-3.81,2.2-3.81,5.71v6.37h-2.58v-14Z"/>
          <path d="M477.84,29.82c-.25,3.1-1.1,4.89-2.2,6.56l3.35,3.79h-3.43l-1.57-1.87c-1.37,1.57-3.05,2.2-5.49,2.2-3.79,0-6.18-2.14-6.18-5.35,0-2.91,1.7-4.56,4.28-5.6-1.02-1.24-1.98-2.53-1.98-4.36,0-3.07,2.25-4.5,5-4.5,2.5,0,4.75,1.32,4.75,4.34,0,2.44-2.17,4.09-4.2,5l3.9,4.45c.74-1.18,1.04-2.44,1.18-4.64h2.58ZM469,38.41c1.78,0,2.94-1.15,3.54-1.84l-4.61-5.41c-1.45.99-2.69,1.89-2.69,3.79,0,2.11,1.78,3.46,3.76,3.46ZM468.92,28.47c1.15-.55,2.88-1.73,2.88-3.35,0-1.76-.96-2.36-2.28-2.36s-2.31.82-2.31,2.47c0,1.29.88,2.33,1.7,3.24Z"/>
          <path d="M488.64,21.01h2.74v8.02h9.17v-8.02h2.74v19.16h-2.74v-8.73h-9.17v8.73h-2.74v-19.16Z"/>
          <path d="M508.15,27.16c1.29-.77,2.83-1.32,4.61-1.32,4.01,0,5.63,1.98,5.63,5.79v5.79c0,1.59.05,2.33.11,2.75h-2.42v-1.81h-.05c-.6.85-1.98,2.14-4.34,2.14-3.02,0-5.13-1.32-5.13-4.36,0-3.51,3.84-4.61,6.51-4.61,1.02,0,1.73,0,2.75.05,0-2.42-.88-3.65-3.46-3.65-1.45,0-3.02.55-4.06,1.43l-.14-2.2ZM515.81,33.5c-.55,0-1.1-.05-1.65-.05-1.4,0-4.86.22-4.86,2.69,0,1.48,1.43,2.28,2.61,2.28,2.55,0,3.9-1.59,3.9-3.68v-1.24Z"/>
          <path d="M522.12,26.17h2.47v1.98h.05c.69-1.04,2.28-2.31,4.75-2.31,4.06,0,6.04,3.32,6.04,7.08s-1.78,7.58-6.01,7.58c-2.47,0-3.87-.96-4.67-2.25h-.05v7.69h-2.58v-19.77ZM528.84,27.92c-2.8,0-4.14,2.66-4.14,5.27,0,2.33,1.21,5.22,4.12,5.22s3.93-3.1,3.87-5.3c.05-2.53-1.04-5.19-3.84-5.19Z"/>
          <path d="M538.26,26.17h2.47v1.98h.06c.69-1.04,2.28-2.31,4.75-2.31,4.06,0,6.04,3.32,6.04,7.08s-1.78,7.58-6.01,7.58c-2.47,0-3.87-.96-4.67-2.25h-.05v7.69h-2.58v-19.77ZM544.99,27.92c-2.8,0-4.14,2.66-4.14,5.27,0,2.33,1.21,5.22,4.12,5.22s3.93-3.1,3.87-5.3c.05-2.53-1.04-5.19-3.84-5.19Z"/>
          <path d="M557.76,23.04h-2.91v-2.91h2.91v2.91ZM555.02,26.17h2.58v14h-2.58v-14Z"/>
          <path d="M561.46,26.17h2.5v2.22h.05c.77-1.59,2.64-2.55,4.58-2.55,3.62,0,5.24,2.25,5.24,6.01v8.32h-2.58v-7.25c0-3.27-.71-4.86-2.97-5-2.94,0-4.26,2.36-4.26,5.77v6.48h-2.58v-14Z"/>
          <path d="M588.44,39.59c-.99.36-2.11.91-4.42.91-4.97,0-7.25-3.02-7.25-7.58,0-4.14,2.61-7.08,6.56-7.08,4.67,0,6.18,3.4,6.18,7.91h-9.99c0,2.77,2.17,4.67,4.61,4.67,1.7,0,3.68-.88,4.31-1.4v2.58ZM586.77,31.82c0-2.14-1.26-3.9-3.49-3.9-2.53,0-3.57,2.09-3.76,3.9h7.25Z"/>
          <path d="M592.19,37.42c1.02.66,2.47.99,3.21.99,1.18,0,2.64-.49,2.64-2,0-2.55-6.07-2.33-6.07-6.26,0-2.91,2.17-4.31,4.94-4.31,1.21,0,2.2.25,3.21.55l-.22,2.25c-.58-.36-2.11-.71-2.72-.71-1.32,0-2.47.55-2.47,1.7,0,2.85,6.07,2.03,6.07,6.51,0,2.99-2.39,4.36-4.89,4.36-1.32,0-2.66-.14-3.84-.77l.14-2.31Z"/>
          <path d="M602.97,37.42c1.02.66,2.47.99,3.21.99,1.18,0,2.64-.49,2.64-2,0-2.55-6.07-2.33-6.07-6.26,0-2.91,2.17-4.31,4.94-4.31,1.21,0,2.2.25,3.21.55l-.22,2.25c-.58-.36-2.11-.71-2.72-.71-1.32,0-2.47.55-2.47,1.7,0,2.85,6.07,2.03,6.07,6.51,0,2.99-2.39,4.36-4.89,4.36-1.32,0-2.66-.14-3.84-.77l.14-2.31Z"/>
        </g>
      </g>
      <g>
        <g>
          <g>
            <g>
              <rect x="525.55" y="93.67" width="10.59" height="37.51"/>
              <path d="M530.84,89.94c-3.95,0-6.09-3.08-6.09-6.22s2.14-6.22,6.09-6.22,6.09,3.08,6.09,6.22-2.14,6.22-6.09,6.22Z"/>
            </g>
            <path d="M554.32,131.18h-10.58v-22.84c0-8.93,7.9-15.14,16.92-15.14h0c9.02,0,16.92,6.2,16.92,15.14v22.84h-10.58v-22.08c0-3.97-2.42-5.95-6.39-5.95-4.2,0-6.28,2.1-6.28,5.45v22.58Z"/>
            <path d="M473.71,93.67h10.58v22.84c0,8.93-7.9,15.14-16.92,15.14h0c-9.02,0-16.92-6.2-16.92-15.14v-22.84h10.58v22.08c0,3.97,2.42,5.95,6.39,5.95,4.2,0,6.28-2.1,6.28-5.45v-22.58Z"/>
            <path d="M620.27,112.35c0-9.4-6.79-19.14-18.67-19.14s-18.7,9.8-18.7,19.23,6.75,19.21,18.69,19.21h.01c5.93,0,10.69-2.01,14.13-5.07.57-.5,1.1-1.03,1.59-1.59l-7.04-5.91c-2.03,1.77-5.13,3.1-8.24,3.1-3.37,0-7.25-1.81-8.79-5.8h26.78c.04-.33.24-2.2.24-4.03ZM592.98,109.29c.74-3.68,3.93-6.6,8.61-6.6s7.87,2.92,8.61,6.6h-17.22Z"/>
            <path d="M491.54,131.18v-9.42h14.8c2.41,0,3.06-1.3,3.06-2.39,0-.68-.31-1.55-1.91-2.1-1.06-.36-6.92-1.79-7.9-2.03-6.41-1.56-9.32-5.75-9.32-10.25,0-5.63,3.95-11.33,12.77-11.33h14.18v8.71h-13.74c-2.13,0-3.16.81-3.16,2.34,0,.91.65,1.76,2.34,2.28,5.61,1.73,16.75,3.38,16.75,12.9,0,6.3-3.93,11.29-13.06,11.29h-14.8Z"/>
            <path d="M625.96,131.18v-9.42h14.8c2.41,0,3.06-1.3,3.06-2.39,0-.68-.31-1.55-1.91-2.1-1.06-.36-6.92-1.79-7.9-2.03-6.41-1.56-9.32-5.75-9.32-10.25,0-5.63,3.95-11.33,12.77-11.33h14.18v8.71h-13.74c-2.13,0-3.16.81-3.16,2.34,0,.91.65,1.76,2.34,2.28,5.61,1.73,16.75,3.38,16.75,12.9,0,6.3-3.93,11.29-13.06,11.29h-14.8Z"/>
            <path d="M658.92,131.18v-9.42h14.8c2.41,0,3.06-1.3,3.06-2.39,0-.68-.31-1.55-1.91-2.1-1.06-.36-6.92-1.79-7.9-2.03-6.41-1.56-9.32-5.75-9.32-10.25,0-5.63,3.95-11.33,12.77-11.33h14.18v8.71h-13.74c-2.13,0-3.16.81-3.16,2.34,0,.91.65,1.76,2.34,2.28,5.61,1.73,16.75,3.38,16.75,12.9,0,6.3-3.93,11.29-13.06,11.29h-14.8Z"/>
          </g>
          <path d="M435.69,103.64c2.76-1.29,7.45-4.46,7.45-12.55s-5.88-14.38-15.42-14.38h-22.6v54.47h23.07c7.73,0,16.47-3.4,16.47-14.63,0-8.55-6.73-12.16-8.97-12.91ZM416.3,86.78h9.42c4.16,0,6.02,2.89,6.02,6.09s-2.02,6.11-6.17,6.11h-9.27v-12.2ZM427.16,121.03h-10.86v-11.93h10.59c3.73,0,6.29,2.92,6.29,5.97s-1.84,5.96-6.02,5.96Z"/>
        </g>
        <g>
          <g>
            <path class="st0" d="M198.1,111.44c0,11.06,7.99,19.74,20.62,19.74h11.65v-10.47h-10.6c-6.78,0-10.52-4.02-10.52-9.28s3.74-9.28,10.52-9.28h10.6v-10.46h-11.65c-12.62,0-20.62,8.68-20.62,19.74Z"/>
            <path class="st0" d="M325.89,91.21c-4.27,0-8.24.86-13.4,4.34-5.16-3.47-9.14-4.34-13.4-4.34-9.5,0-16.13,6.53-16.13,15.93v24.04h11.14v-23.49c0-4.02,2.45-6.02,6.47-6.02,4.25,0,6.35,2.12,6.35,5.52v23.99h11.13v-23.99c0-3.4,2.1-5.52,6.35-5.52,4.02,0,6.47,2.01,6.47,6.02v23.49h11.14v-24.04c0-9.4-6.63-15.93-16.13-15.93Z"/>
            <path class="st0" d="M368.77,91.21c-13.24,0-20.72,10.32-20.72,20.24s7.48,20.22,20.72,20.22,20.69-10.33,20.69-20.22-7.48-20.24-20.69-20.24ZM368.76,121.21c-6.2,0-9.56-4.84-9.56-9.77s3.36-9.77,9.56-9.77,9.57,4.83,9.57,9.77-3.36,9.77-9.57,9.77Z"/>
            <path class="st0" d="M134.08,73.84v19.85c-2.69-1.56-5.92-2.49-9.65-2.49-13.37,0-20.47,10.4-20.47,20.24s7.1,20.22,20.47,20.22c10.04,0,13.79-4.85,20.8-8.06v-49.76h-11.14ZM115.11,111.44c0-4.93,3.36-9.77,9.56-9.77s9.45,4.63,9.56,9.51v.51c-.11,4.88-3.36,9.51-9.56,9.51s-9.56-4.84-9.56-9.77Z"/>
            <path class="st0" d="M178.28,73.85l-.02,2.7h-3.91l.02,9.81h-2.9v-9.81h-3.91v-2.7h10.72Z"/>
            <path class="st0" d="M191.13,73.85v2.7h-3.92v9.81h-2.89v-9.81h-3.91v-2.7h10.72Z"/>
            <path class="st0" d="M156.65,73.84l5.69,8.02v-8.02s2.77,0,2.77,0v12.5h-3.04l-5.66-8v8h-2.77v-12.51h3.01Z"/>
            <path class="st0" d="M172.22,91.21c-13.24,0-20.72,10.32-20.72,20.24s7.48,20.22,20.72,20.22,20.7-10.33,20.7-20.22-7.48-20.24-20.7-20.24ZM172.21,121.21c-6.2,0-9.56-4.84-9.56-9.77s3.36-9.77,9.56-9.77,9.57,4.83,9.57,9.77-3.36,9.77-9.57,9.77Z"/>
            <path class="st0" d="M256.23,91.21c-13.23,0-20.72,10.32-20.72,20.24s7.48,20.22,20.72,20.22,20.69-10.33,20.69-20.22-7.48-20.24-20.69-20.24ZM256.22,121.21c-6.2,0-9.56-4.84-9.56-9.77s3.36-9.77,9.56-9.77,9.56,4.83,9.56,9.77-3.36,9.77-9.56,9.77Z"/>
          </g>
          <path class="st1" d="M60.9,68.74c-3.25,0-6.45.7-8.71,1.63-2.26-.93-5.46-1.63-8.71-1.63-14.32,0-27.24,13.54-27.24,32.12,0,20.25,16.55,35.92,35.95,35.92s35.96-15.66,35.96-35.92c0-18.58-12.93-32.12-27.25-32.12h0ZM52.19,79.77c2.76,1.64,6.4,6.4,6.4,11.76,0,3.93-2.6,7.03-6.4,7.03s-6.4-3.1-6.4-7.03c0-5.36,3.65-10.12,6.4-11.76h0ZM52.19,127.93c-14.84,0-27.12-11.94-27.12-27.25,0-13.98,10.09-23.53,18.01-23.17-3.75,3.74-6.03,9.19-6.03,14.47,0,9.07,7.2,15.44,15.14,15.44s15.14-6.36,15.14-15.44c0-5.28-2.28-10.73-6.03-14.47,7.93-.36,18.01,9.19,18.01,23.17,0,15.31-12.28,27.25-27.12,27.25Z"/>
        </g>
      </g>
    </g>
  </g>
  <g id="_日本語" data-name="日本語">
    <g>
      <g>
        <path d="M514.37,36.18c-2.39,0-3.74,1.86-3.74,3.65s1.35,3.65,3.74,3.65,3.73-1.86,3.73-3.65-1.35-3.65-3.73-3.65ZM514.36,41.59c-1.12,0-1.72-.87-1.72-1.76s.61-1.76,1.72-1.76,1.73.87,1.73,1.76-.61,1.76-1.73,1.76Z"/>
        <g>
          <path d="M209.95,27.17c-1.29-1.23-3.12-1.88-5.29-1.88-1.75,0-4.06.43-6.08.84-2.63.51-4.85.96-6.98,1.4-.01,0-.03.01-.03.02,0,.01,0,.03,0,.04l.86,3s.04.04.06.03h.05c2.14-.53,4.34-1.06,6.83-1.6,2.06-.44,3.73-.74,5.15-.74,2.44,0,3.96,1.47,3.96,3.84,0,3.16-3.67,5.31-10.33,6.07-.02,0-.03.01-.04.03s0,.03,0,.05l1.79,2.88s.03.02.04.02c0,0,0,0,0,0,7.81-1.18,11.94-4.35,11.94-9.17,0-1.96-.67-3.63-1.94-4.83Z"/>
          <g>
            <path d="M241.43,32.05s.02.01.03.01h0s.03,0,.04-.02l1.65-2.31s.01-.05,0-.07c-1.73-1.64-3.53-2.74-5.99-3.67-.02,0-.05,0-.06.02l-1.3,2.31s0,.03,0,.04c0,.01.01.02.03.03,2.28.98,3.75,1.93,5.62,3.65Z"/>
            <path d="M236.71,35.79c-.05-.65-.07-1.38-.07-2,0-.76.1-1.39.61-2.39.01-.02,0-.05-.02-.07l-2.58-1.48s-.05,0-.07.02c-.89,1.38-1.02,2.75-1.02,3.45,0,.47.05,1.21.09,1.89-.62-.08-1.12-.12-1.57-.12-2.71,0-4.67,1.54-4.67,3.66,0,2.36,2.01,4.01,4.89,4.01s4.53-1.56,4.53-3.98v-.02c1.19.57,2.41,1.31,3.63,2.22.01,0,.03.01.04,0,.01,0,.03-.01.03-.02l1.43-2.58s0-.05-.02-.07c-1.59-1-3.45-1.89-5.24-2.53ZM233.86,37.93v.7c0,.83-.59,1.33-1.57,1.33-1.04,0-1.77-.47-1.77-1.13s.76-1.08,1.89-1.08c.45,0,.91.06,1.45.19Z"/>
            <path d="M235.32,27.04s.04-.03.04-.06l-.52-2.83s-.01-.03-.02-.03c-.01,0-.03-.01-.04,0-1.07.27-2.36.51-3.73.7.29-.9.58-1.85.86-2.8,0-.01,0-.03,0-.04s-.02-.02-.03-.02l-3-.69s-.05.01-.06.04c-.31,1.35-.66,2.63-1.05,3.9-1.83.16-3.76.27-5.45.29-.01,0-.03,0-.04.02s-.01.03-.01.04l.37,2.83s.02.04.05.04c.96-.02,2.29-.1,4.05-.24-1.08,2.77-2.49,5.39-4.44,8.25,0,.01-.01.03,0,.04,0,.01.01.03.02.03l2.75,1.57s.02,0,.02,0c.02,0,.03,0,.04-.02,2.19-3.67,3.66-6.72,4.91-10.21,2.07-.25,3.99-.54,5.26-.81Z"/>
          </g>
          <g>
            <path d="M254.59,27.56c1.02.02,3.67.04,6.47-.09-.82.58-1.54,1.12-2.25,1.7-.01.01-.02.03-.02.04,0,.02.01.03.03.04l2.51,1.16s.01,0,.02,0c.01,0,.02,0,.03-.01,1.56-1.41,2.37-2.12,3.7-2.72.81-.39,1.16-.46,2.1-.54.01,0,.03,0,.04-.02,0-.01.01-.03,0-.04l-.52-2.93s-.03-.04-.05-.04c0,0,0,0,0,0-3.51.44-7.51.57-12.24.39-.01,0-.03,0-.04.01s-.01.02-.01.04l.17,2.95s.02.05.05.05Z"/>
            <path d="M269.62,37.74s-.03,0-.04,0c-2.39.59-5.3.93-7.98.93-3.59,0-5.26-.68-5.26-2.14,0-.93.68-1.98,1.82-2.81.01,0,.02-.03.02-.04,0-.02-.01-.03-.03-.04l-2.58-1.45s-.04,0-.06,0c-1.54,1.47-2.33,2.99-2.33,4.54,0,3.3,3.01,5.04,8.71,5.04,3.05,0,5.97-.29,8.42-.84.01,0,.02-.01.03-.02,0-.01,0-.02,0-.04l-.71-3.1s-.01-.02-.02-.03Z"/>
            <path d="M271.33,21.45s-.04-.03-.06-.02l-1.75.84s-.02.02-.03.03c0,.01,0,.03,0,.04.81,1.15,1.29,2.14,1.86,3.8,0,.01.01.02.03.03,0,0,.01,0,.02,0,0,0,.01,0,.02,0l1.77-.86s.03-.04.03-.06c-.56-1.54-1.01-2.55-1.9-3.8Z"/>
            <path d="M268.46,22.2l-1.72.81s-.02.02-.03.03,0,.03,0,.04c.79,1.21,1.31,2.31,1.84,3.9,0,.01.01.02.03.03,0,0,.01,0,.02,0,0,0,.02,0,.02,0l1.82-.91s.03-.04.02-.06c-.61-1.56-1.08-2.58-1.95-3.82-.01-.02-.04-.03-.06-.02Z"/>
          </g>
          <g>
            <path d="M284.87,23.55c2.47.44,5.1.98,7.68,2.21,0,0,.01,0,.02,0,0,0,.01,0,.02,0,.01,0,.02-.01.03-.03l1.21-2.71s0-.03,0-.04c0-.01-.01-.02-.03-.03-2.7-1.18-5.08-1.7-7.83-2.12-.02,0-.05,0-.05.03l-1.08,2.61s0,.03,0,.04c0,.01.02.02.03.03Z"/>
            <path d="M290.51,26.43c-1.18,0-2.72.24-4.83.76-1.3.33-3.18.78-4.45,1.06-.01,0-.03.01-.03.02s0,.03,0,.04l.89,2.95s.04.04.06.03c.35-.1.75-.22,1.19-.35,1.09-.32,2.33-.69,3.31-.93,2-.54,2.76-.64,3.53-.64,1.06,0,2.83.39,2.83,2.97,0,1.6-.69,3.27-1.9,4.59-1.28,1.36-3.11,2.42-5.76,3.33-.02,0-.03.02-.03.04s0,.03.02.05l2.48,2.21s.02.01.03.01c0,0,.01,0,.02,0,2.75-1.03,4.71-2.34,6.17-4.12,1.6-1.94,2.37-4.07,2.37-6.5,0-3.31-2.36-5.53-5.88-5.53Z"/>
          </g>
          <g>
            <path d="M325,39.94l-2.61-.71s-.05,0-.06.03c-.42,1.23-1.06,2.43-1.79,3.35,0,.01-.01.03,0,.04s.01.03.03.03l2.68,1.33s.01,0,.02,0c.02,0,.03,0,.04-.02.69-1.03,1.27-2.37,1.73-4,0-.01,0-.03,0-.04,0-.01-.02-.02-.03-.02Z"/>
            <path d="M328.59,39.53l-2.58.34s-.03,0-.03.02c0,.01-.01.03,0,.04.33,1.23.54,2.51.61,3.7,0,.01,0,.03.02.04,0,0,.02.01.03.01,0,0,0,0,.01,0l2.83-.59s.04-.03.04-.06c-.22-1.4-.49-2.48-.86-3.48,0-.02-.03-.04-.05-.03Z"/>
            <path d="M341.3,32.68s.05-.02.05-.05v-1.46c.22.09.44.17.67.26.02,0,.04,0,.06-.02l1.45-2.04s.01-.03,0-.05-.02-.03-.03-.03c-1.44-.37-2.84-.89-3.84-1.42.68-.84,1.21-1.8,1.65-3.01h1.47s.05-.02.05-.05v-1.97s-.02-.05-.05-.05h-5.71c.1-.3.32-1.04.4-1.34,0-.01,0-.03,0-.04,0-.01-.02-.02-.03-.02l-2.29-.47s-.05.01-.06.04c-.37,1.76-1.15,3.49-2.15,4.77l.06-.57s0-.03-.01-.04c0-.01-.02-.02-.04-.02h-7.82c.05-.11.1-.25.13-.34h.85s.05-.02.05-.05v-.79h2.04v.79s.02.05.05.05h2.26s.05-.02.05-.05v-.79h2.78s.05-.02.05-.05v-1.52s-.02-.05-.05-.05h-2.78v-1.11s-.02-.05-.05-.05h-2.26s-.05.02-.05.05v1.11h-2.04v-1.11s-.02-.05-.05-.05h-2.26s-.05.02-.05.05v1.11h-2.75s-.05.02-.05.05v1.52s.02.05.05.05h2.75v.36l-.75-.14s-.05.01-.06.04c-.32,1.23-1.12,2.41-2.37,3.52-.02.02-.02.05,0,.07l1.33,1.82s.02.02.03.02c.01,0,.03,0,.04-.01.4-.35.82-.79,1.15-1.2v1.92s.02.05.05.05h5.05l.19.74h-5.17s-.05.02-.05.05v7.77s.02.05.05.05h13.61l-2.22.64s-.03.02-.03.03c0,.02,0,.03,0,.05.54.74,1.01,1.72,1.42,3.01,0,.01.01.02.03.03s.03,0,.04,0l1.2-.45.23,1.05s.02.03.04.04c.69.13,1.52.2,2.34.2,2.04,0,2.56-1.09,2.9-6.12,0-.01,0-.03-.01-.04,0-.01-.02-.02-.04-.02h-9.2v-.78h6.88s.05-.02.05-.05v-1.1s-.02-.05-.05-.05h-6.88v-.8h6.88s.05-.02.05-.05v-1.1s-.02-.05-.05-.05h-6.88v-.75h7.7ZM338.92,41.36c-.14,0-.26,0-.43-.02-.47-1.04-.82-1.64-1.35-2.36h2.86c-.27,2.25-.38,2.38-1.07,2.38ZM327.33,28.35v.79h-2.21v-.79h2.21ZM336.17,24.86h2.65c-.24.69-.57,1.28-1,1.8-.66-.47-1.36-1.23-1.66-1.8ZM332.5,29.43l1.06,1.67h-2c.72-.45,1-1.43,1.29-4.42l.98,1.3s.02.02.04.02c.02,0,.03,0,.04-.01.38-.36.76-.78,1.12-1.26.34.47.79.97,1.22,1.36-1.03.65-2.24,1.07-3.71,1.26-.02,0-.03.01-.04.03,0,.02,0,.03,0,.05ZM324.39,26.58h6.11c-.18,1.71-.3,2.27-.39,2.57-.14.44-.34.53-.62.56h-.19v-2.48s-.02-.05-.05-.05h-5.22c.13-.2.28-.45.36-.59ZM330.95,36.62v.78h-5.01v-.78h5.01ZM325.93,33.43v-.75h5.01v.75h-5.01ZM325.93,35.42v-.8h5.01v.8h-5.01ZM334.88,31.1c1.22-.39,2.32-.96,3.11-1.63.84.56,1.98,1.13,3.21,1.63h-6.32Z"/>
            <path d="M332.69,39.2l-2.39.62s-.03.01-.03.03c0,.01,0,.03,0,.04.55.94.96,2.11,1.15,3.28,0,.01.01.03.02.03,0,0,.02,0,.03,0,0,0,0,0,.01,0l2.66-.76s.04-.03.03-.06c-.3-1.15-.74-2.13-1.43-3.16-.01-.02-.03-.03-.05-.02Z"/>
          </g>
          <path d="M371.66,27.42s-.01-.02-.03-.03c-.01,0-.03,0-.04,0-1.28.44-3.1.84-5.41,1.17-.29-.69-.54-1.31-.75-1.87,2.03-.3,3.57-.62,4.69-.98.03,0,.04-.03.03-.06l-.74-2.61s-.01-.02-.02-.03c-.01,0-.03,0-.04,0-1.25.4-2.91.75-4.79,1-.28-1-.47-1.86-.6-2.63,0-.01,0-.03-.02-.03-.01,0-.02-.01-.04,0l-2.98.59s-.03.01-.03.02c0,.01,0,.03,0,.04.08.27.15.53.23.79.16.54.31,1.06.47,1.56-1.86.16-3.89.22-5.88.17h0s-.03,0-.04.02c0,.01-.01.03-.01.04l.32,2.75s.02.04.05.04c1.78.02,4.09-.09,6.51-.32.25.67.51,1.3.77,1.87-3.18.29-6.24.4-8.87.31-.01,0-.03,0-.04.02-.01.01-.01.02-.01.04l.27,2.85s.02.05.05.05h0c1.93-.02,5.79-.11,9.93-.59.49.88.93,1.57,1.38,2.2-.94-.21-1.86-.31-2.83-.31-4.11,0-6.98,1.81-6.98,4.4,0,3.14,2.96,4.87,8.34,4.87,1.32,0,3.35-.09,4.68-.27.01,0,.02,0,.03-.02,0-.01.01-.02,0-.04l-.42-2.93s0-.03-.02-.03c-.01,0-.03-.01-.04,0-1.17.22-2.84.37-4.15.37-3.42,0-5.31-.72-5.31-2.02,0-.95,1.37-1.92,3.98-1.92,1.13,0,2.15.14,3.13.42,1.06.3,1.82.66,2.81,1.32.02.01.05.01.07-.01l1.77-2.24s.01-.02.01-.04,0-.03-.02-.03c-1.19-.89-2.4-2.31-3.49-4.1,1.97-.29,3.61-.63,4.88-1.02.01,0,.02-.01.03-.02,0-.01,0-.03,0-.04l-.84-2.7Z"/>
          <path d="M447.68,27.93h-9.69v-1.77h7.6s.05-.02.05-.05v-2.21s-.02-.05-.05-.05h-7.6v-2.65s-.02-.05-.05-.05h-2.8s-.05.02-.05.05v2.65h-7.45s-.05.02-.05.05v2.21s.02.05.05.05h7.45v1.77h-9.54s-.05.02-.05.05v2.26s.02.05.05.05h4.81c.54.98.78,1.51,1.16,2.48h-5.36s-.05.02-.05.05v2.21s.02.05.05.05h8.93v1.84h-8.19s-.05.02-.05.05v2.26s.02.05.05.05h8.19v4.03s.02.05.05.05h2.8s.05-.02.05-.05v-4.03h8.34s.05-.02.05-.05v-2.26s-.02-.05-.05-.05h-8.34v-1.84h9.07s.05-.02.05-.05v-2.21s-.02-.05-.05-.05h-5.73c.47-.68.9-1.43,1.41-2.48h4.94s.05-.02.05-.05v-2.26s-.02-.05-.05-.05ZM433.4,30.29h6.19c-.34.77-.81,1.67-1.3,2.48h-3.8c-.25-.69-.42-1.11-1.09-2.48Z"/>
          <path d="M479.21,26.89s0-.03-.02-.03-.02-.01-.04-.01c-1.4.16-2.91.3-4.74.46.02-2,.02-4.24,0-5.48,0-.01,0-.03-.02-.03,0,0-.03-.02-.04-.01l-3.05.07s-.03,0-.04.02-.01.02-.01.04c.1,1.65.15,3.61.15,5.66-1.95.14-4.03.29-6.1.41.03-1.67.08-3.31.12-4.69,0-.01,0-.03-.01-.04s-.02-.02-.04-.02l-3.05-.02h0s-.03,0-.03.01c0,0-.01.02-.01.04,0,.78-.02,2.3-.04,4.05v.82c-1.42.06-2.77.1-4.07.15l-.66.02s-.03,0-.04.02-.01.02-.01.04l.25,2.9s.02.05.05.05h0c1.29-.07,2.65-.15,4.09-.25l.33-.02c0,1.21,0,2.36-.02,3.28,0,.63,0,1.16,0,1.53,0,4.46,2.14,6.12,7.89,6.12,2.51,0,4.41-.13,6.57-.44.01,0,.02,0,.03-.02,0-.01.01-.02,0-.04l-.47-3.1s0-.03-.02-.03c-.01,0-.02-.01-.04,0-2.45.42-4,.56-5.92.56-3.75,0-4.99-.52-4.99-3.56,0-1.46,0-2.97.02-4.48,2.02-.12,4.1-.27,6.12-.41-.05,2.69-.26,3.39-.98,3.39-.61,0-1.51-.19-2.47-.51-.02,0-.03,0-.05,0s-.02.02-.02.04v2.83s.01.04.04.05c1.09.29,2.42.47,3.58.47,2.57,0,2.73-1.45,2.88-6.47l5.04-.37s.03,0,.03-.02c0-.01.01-.02.01-.04l-.25-2.93Z"/>
          <path d="M506.15,28.89s-.04-.04-.06-.03c-1.59.64-3.32,1.36-5.29,2.22-.6-1.53-1.86-2.34-3.67-2.34-.59,0-1.24.13-1.87.37.34-.54.66-1.08.99-1.69,2.84-.24,5.42-.54,7.45-.88.03,0,.04-.03.04-.06l-.37-2.88s0-.03-.02-.03c-.01,0-.03-.01-.04,0-1.81.38-3.69.68-5.59.88.33-.78.63-1.56.9-2.31,0-.01,0-.03,0-.04,0-.01-.02-.02-.03-.03l-2.88-.86s-.05,0-.06.03c-.43,1.4-.82,2.5-1.22,3.48-1.88.11-3.82.17-5.77.17-.01,0-.03,0-.04.02,0,.01-.01.02-.01.04l.27,2.9s.03.05.05.05c1.3-.05,2.69-.12,4.14-.22-1.28,2.38-2.77,4.29-4.69,6.01-.01.01-.02.02-.02.04s0,.03.02.04l2.39,1.77s.05.01.07,0c1.01-1.32,1.54-1.94,2.52-2.77,1.06-.93,2.2-1.44,3.21-1.44.75,0,1.27.32,1.54.96-2.97,1.44-5.99,3.27-5.99,6s2.29,4.03,6.81,4.03c2.18,0,4.65-.16,6.77-.44.01,0,.03,0,.03-.02,0-.01.01-.02,0-.04l-.54-3.05s-.01-.03-.02-.03c-.01,0-.03,0-.04,0-1.97.41-4.53.69-6.38.69-2.35,0-3.54-.49-3.54-1.45,0-.89,1.06-1.85,3.24-2.94v.31c0,.82-.08,1.84-.15,2.73,0,.01,0,.03.01.04s.02.02.04.02h2.93s.05-.02.05-.05c.05-.81.05-1.44.05-2.39,0-.64-.03-1.23-.09-1.81,1.73-.7,3.73-1.41,5.94-2.12.01,0,.02-.01.03-.03s0-.03,0-.04l-1.13-2.75Z"/>
          <path d="M409.07,36.18c-2.39,0-3.74,1.86-3.74,3.65s1.35,3.65,3.74,3.65,3.73-1.86,3.73-3.65-1.35-3.65-3.73-3.65ZM409.06,41.59c-1.12,0-1.72-.87-1.72-1.76s.61-1.76,1.72-1.76,1.73.87,1.73,1.76-.61,1.76-1.73,1.76Z"/>
          <path d="M303.45,36.18c-2.39,0-3.74,1.86-3.74,3.65s1.35,3.65,3.74,3.65,3.73-1.86,3.73-3.65-1.35-3.65-3.73-3.65ZM303.44,41.59c-1.12,0-1.72-.87-1.72-1.76s.61-1.76,1.72-1.76,1.73.87,1.73,1.76-.61,1.76-1.73,1.76Z"/>
          <path d="M400.85,28.89s-.04-.04-.06-.03c-1.61.64-3.29,1.35-5.29,2.22-.6-1.53-1.86-2.34-3.67-2.34-.59,0-1.24.13-1.87.37.34-.54.66-1.08.99-1.69,2.84-.24,5.42-.54,7.45-.88.03,0,.04-.03.04-.06l-.37-2.88s0-.03-.02-.03c-.01,0-.03-.01-.04,0-1.81.38-3.69.68-5.59.88.33-.79.63-1.56.9-2.31,0-.01,0-.03,0-.04,0-.01-.02-.02-.03-.03l-2.88-.86s-.05,0-.06.03c-.43,1.4-.82,2.51-1.22,3.48-1.88.11-3.82.17-5.77.17-.01,0-.03,0-.04.02,0,.01-.01.02-.01.04l.27,2.9s.02.05.05.05h0c1.3-.05,2.69-.12,4.14-.22-1.28,2.38-2.77,4.29-4.69,6.01-.01.01-.02.02-.02.04s0,.03.02.04l2.39,1.77s.05.01.07,0c1.01-1.32,1.54-1.94,2.52-2.77,1.06-.93,2.2-1.44,3.21-1.44.75,0,1.27.32,1.54.96-2.97,1.44-5.99,3.27-5.99,6s2.29,4.03,6.81,4.03c2.18,0,4.65-.16,6.77-.44.01,0,.03,0,.03-.02,0-.01.01-.02,0-.04l-.54-3.05s-.01-.03-.02-.03c-.01,0-.03,0-.04,0-1.97.41-4.53.69-6.38.69-2.35,0-3.54-.49-3.54-1.45,0-.89,1.06-1.85,3.24-2.94v.31c0,.82-.08,1.84-.15,2.73,0,.01,0,.03.01.04,0,.01.02.02.04.02h2.93s.05-.02.05-.05c.05-.81.05-1.44.05-2.39,0-.64-.03-1.23-.09-1.81,1.73-.7,3.73-1.41,5.94-2.12.01,0,.02-.01.03-.03s0-.03,0-.04l-1.13-2.75Z"/>
        </g>
      </g>
      <g>
        <g>
          <g>
            <g>
              <rect x="525.55" y="92.08" width="10.59" height="37.51"/>
              <path d="M530.84,88.35c-3.95,0-6.09-3.08-6.09-6.22s2.14-6.22,6.09-6.22,6.09,3.08,6.09,6.22-2.14,6.22-6.09,6.22Z"/>
            </g>
            <path d="M554.32,129.59h-10.58v-22.84c0-8.93,7.9-15.14,16.92-15.14h0c9.02,0,16.92,6.2,16.92,15.14v22.84h-10.58v-22.08c0-3.97-2.42-5.95-6.39-5.95-4.2,0-6.28,2.1-6.28,5.45v22.58Z"/>
            <path d="M473.71,92.08h10.58v22.84c0,8.93-7.9,15.14-16.92,15.14h0c-9.02,0-16.92-6.2-16.92-15.14v-22.84h10.58v22.08c0,3.97,2.42,5.95,6.39,5.95,4.2,0,6.28-2.1,6.28-5.45v-22.58Z"/>
            <path d="M620.27,110.76c0-9.4-6.79-19.14-18.67-19.14s-18.7,9.8-18.7,19.23,6.75,19.21,18.69,19.21h.01c5.93,0,10.69-2.01,14.13-5.07.57-.5,1.1-1.03,1.59-1.59l-7.04-5.91c-2.03,1.77-5.13,3.1-8.24,3.1-3.37,0-7.25-1.81-8.79-5.8h26.78c.04-.33.24-2.2.24-4.03ZM592.98,107.7c.74-3.68,3.93-6.6,8.61-6.6s7.87,2.92,8.61,6.6h-17.22Z"/>
            <path d="M491.54,129.59v-9.42h14.8c2.41,0,3.06-1.3,3.06-2.39,0-.68-.31-1.55-1.91-2.1-1.06-.36-6.92-1.79-7.9-2.03-6.41-1.56-9.32-5.75-9.32-10.25,0-5.63,3.95-11.33,12.77-11.33h14.18v8.71h-13.74c-2.13,0-3.16.81-3.16,2.34,0,.91.65,1.76,2.34,2.28,5.61,1.73,16.75,3.38,16.75,12.9,0,6.3-3.93,11.29-13.06,11.29h-14.8Z"/>
            <path d="M625.96,129.59v-9.42h14.8c2.41,0,3.06-1.3,3.06-2.39,0-.68-.31-1.55-1.91-2.1-1.06-.36-6.92-1.79-7.9-2.03-6.41-1.56-9.32-5.75-9.32-10.25,0-5.63,3.95-11.33,12.77-11.33h14.18v8.71h-13.74c-2.13,0-3.16.81-3.16,2.34,0,.91.65,1.76,2.34,2.28,5.61,1.73,16.75,3.38,16.75,12.9,0,6.3-3.93,11.29-13.06,11.29h-14.8Z"/>
            <path d="M658.92,129.59v-9.42h14.8c2.41,0,3.06-1.3,3.06-2.39,0-.68-.31-1.55-1.91-2.1-1.06-.36-6.92-1.79-7.9-2.03-6.41-1.56-9.32-5.75-9.32-10.25,0-5.63,3.95-11.33,12.77-11.33h14.18v8.71h-13.74c-2.13,0-3.16.81-3.16,2.34,0,.91.65,1.76,2.34,2.28,5.61,1.73,16.75,3.38,16.75,12.9,0,6.3-3.93,11.29-13.06,11.29h-14.8Z"/>
          </g>
          <path d="M435.69,102.05c2.76-1.29,7.45-4.46,7.45-12.55s-5.88-14.38-15.42-14.38h-22.6v54.47h23.07c7.73,0,16.47-3.4,16.47-14.63,0-8.55-6.73-12.16-8.97-12.91ZM416.3,85.19h9.42c4.16,0,6.02,2.89,6.02,6.09s-2.02,6.11-6.17,6.11h-9.27v-12.2ZM427.16,119.44h-10.86v-11.93h10.59c3.73,0,6.29,2.92,6.29,5.97s-1.84,5.96-6.02,5.96Z"/>
        </g>
        <g>
          <g>
            <path class="st0" d="M198.1,109.85c0,11.06,7.99,19.74,20.62,19.74h11.65v-10.47h-10.6c-6.78,0-10.52-4.02-10.52-9.28s3.74-9.28,10.52-9.28h10.6v-10.46h-11.65c-12.62,0-20.62,8.68-20.62,19.74Z"/>
            <path class="st0" d="M325.89,89.62c-4.27,0-8.24.86-13.4,4.34-5.16-3.47-9.14-4.34-13.4-4.34-9.5,0-16.13,6.53-16.13,15.93v24.04h11.14v-23.49c0-4.02,2.45-6.02,6.47-6.02,4.25,0,6.35,2.12,6.35,5.52v23.99h11.13v-23.99c0-3.4,2.1-5.52,6.35-5.52,4.02,0,6.47,2.01,6.47,6.02v23.49h11.14v-24.04c0-9.4-6.63-15.93-16.13-15.93Z"/>
            <path class="st0" d="M368.77,89.62c-13.24,0-20.72,10.32-20.72,20.24s7.48,20.22,20.72,20.22,20.69-10.33,20.69-20.22-7.48-20.24-20.69-20.24ZM368.76,119.62c-6.2,0-9.56-4.84-9.56-9.77s3.36-9.77,9.56-9.77,9.57,4.83,9.57,9.77-3.36,9.77-9.57,9.77Z"/>
            <path class="st0" d="M134.08,72.25v19.85c-2.69-1.56-5.92-2.49-9.65-2.49-13.37,0-20.47,10.4-20.47,20.24s7.1,20.22,20.47,20.22c10.04,0,13.79-4.85,20.8-8.06v-49.76h-11.14ZM115.11,109.85c0-4.93,3.36-9.77,9.56-9.77s9.45,4.63,9.56,9.51v.51c-.11,4.88-3.36,9.51-9.56,9.51s-9.56-4.84-9.56-9.77Z"/>
            <path class="st0" d="M178.28,72.26l-.02,2.7h-3.91l.02,9.81h-2.9v-9.81h-3.91v-2.7h10.72Z"/>
            <path class="st0" d="M191.13,72.26v2.7h-3.92v9.81h-2.89v-9.81h-3.91v-2.7h10.72Z"/>
            <path class="st0" d="M156.65,72.25l5.69,8.02v-8.02s2.77,0,2.77,0v12.5h-3.04l-5.66-8v8h-2.77v-12.51h3.01Z"/>
            <path class="st0" d="M172.22,89.62c-13.24,0-20.72,10.32-20.72,20.24s7.48,20.22,20.72,20.22,20.7-10.33,20.7-20.22-7.48-20.24-20.7-20.24ZM172.21,119.62c-6.2,0-9.56-4.84-9.56-9.77s3.36-9.77,9.56-9.77,9.57,4.83,9.57,9.77-3.36,9.77-9.57,9.77Z"/>
            <path class="st0" d="M256.23,89.62c-13.23,0-20.72,10.32-20.72,20.24s7.48,20.22,20.72,20.22,20.69-10.33,20.69-20.22-7.48-20.24-20.69-20.24ZM256.22,119.62c-6.2,0-9.56-4.84-9.56-9.77s3.36-9.77,9.56-9.77,9.56,4.83,9.56,9.77-3.36,9.77-9.56,9.77Z"/>
          </g>
          <path class="st1" d="M60.9,67.15c-3.25,0-6.45.7-8.71,1.63-2.26-.93-5.46-1.63-8.71-1.63-14.32,0-27.24,13.54-27.24,32.12,0,20.25,16.55,35.92,35.95,35.92s35.96-15.66,35.96-35.92c0-18.58-12.93-32.12-27.25-32.12h0ZM52.19,78.18c2.76,1.64,6.4,6.4,6.4,11.76,0,3.93-2.6,7.03-6.4,7.03s-6.4-3.1-6.4-7.03c0-5.36,3.65-10.12,6.4-11.76h0ZM52.19,126.34c-14.84,0-27.12-11.94-27.12-27.25,0-13.98,10.09-23.53,18.01-23.17-3.75,3.74-6.03,9.19-6.03,14.47,0,9.07,7.2,15.44,15.14,15.44s15.14-6.36,15.14-15.44c0-5.28-2.28-10.73-6.03-14.47,7.93-.36,18.01,9.19,18.01,23.17,0,15.31-12.28,27.25-27.12,27.25Z"/>
        </g>
      </g>
    </g>
  </g>
  <g id="_レイヤー_3" data-name="レイヤー_3" class="st2">
    <path class="st3" d="M704.12,1v154.63H-.51V1h704.63M705.12,0H-1.51v156.63h706.63V0h0Z"/>
  </g>
</svg>