<svg xmlns="http://www.w3.org/2000/svg" width="122" height="33.113" viewBox="0 0 122 33.113"><defs><style>.a{fill:#474645;}.b{fill:#004295;}.c{fill:#dc0013;}</style></defs><g transform="translate(-99.001 -113.822)"><g transform="translate(99.001 141.019)"><path class="a" d="M101.508,177.736a1.265,1.265,0,0,0-.764-.217,1.816,1.816,0,0,0-.371.038.981.981,0,0,0-.324.126.665.665,0,0,0-.226.236.732.732,0,0,0-.085.368.469.469,0,0,0,.123.337.909.909,0,0,0,.327.211,2.746,2.746,0,0,0,.463.135q.258.054.526.116t.525.148a1.741,1.741,0,0,1,.463.229,1.093,1.093,0,0,1,.327.365,1.281,1.281,0,0,1-.037,1.167,1.328,1.328,0,0,1-.412.415,1.789,1.789,0,0,1-.563.232,2.738,2.738,0,0,1-.62.073,2.652,2.652,0,0,1-.714-.094,1.768,1.768,0,0,1-.591-.287,1.356,1.356,0,0,1-.4-.491,1.586,1.586,0,0,1-.148-.708h.566a1.012,1.012,0,0,0,.11.488,1,1,0,0,0,.289.337,1.225,1.225,0,0,0,.418.2,1.933,1.933,0,0,0,.491.063,2.251,2.251,0,0,0,.406-.038,1.186,1.186,0,0,0,.368-.129.691.691,0,0,0,.365-.651.564.564,0,0,0-.123-.377.9.9,0,0,0-.327-.236,2.385,2.385,0,0,0-.463-.148l-.525-.116q-.268-.06-.526-.139a1.9,1.9,0,0,1-.463-.208.929.929,0,0,1-.45-.846,1.192,1.192,0,0,1,.138-.588,1.215,1.215,0,0,1,.368-.409,1.655,1.655,0,0,1,.522-.239,2.3,2.3,0,0,1,.6-.079,2.4,2.4,0,0,1,.642.082,1.448,1.448,0,0,1,.519.258,1.246,1.246,0,0,1,.352.443,1.6,1.6,0,0,1,.142.639h-.566A.935.935,0,0,0,101.508,177.736Z" transform="translate(-99.001 -177.015)"/><path class="a" d="M111.615,183.4v-.516H111.6a1.093,1.093,0,0,1-.434.444,1.3,1.3,0,0,1-.623.141,1.455,1.455,0,0,1-.535-.085.852.852,0,0,1-.346-.242.907.907,0,0,1-.185-.374,2.011,2.011,0,0,1-.054-.482v-2.139h.535v2.2a.645.645,0,0,0,.176.478.655.655,0,0,0,.485.176,1.09,1.09,0,0,0,.425-.076.792.792,0,0,0,.3-.214.916.916,0,0,0,.179-.324,1.312,1.312,0,0,0,.06-.406v-1.837h.535V183.4Z" transform="translate(-104.939 -178.797)"/><path class="a" d="M118.569,180.043v.686h.013a1.446,1.446,0,0,1,.478-.585,1.2,1.2,0,0,1,.717-.176v.566a1.518,1.518,0,0,0-.547.088.861.861,0,0,0-.365.258,1.06,1.06,0,0,0-.2.412,2.217,2.217,0,0,0-.063.557V183.3h-.535v-3.253Z" transform="translate(-109.861 -178.697)"/><path class="a" d="M124.011,183.4l-1.208-3.253h.6l.912,2.712h.012l.887-2.712h.56l-1.189,3.253Z" transform="translate(-112.559 -178.797)"/><path class="a" d="M133.47,183.09a1.479,1.479,0,0,1-.919.276,1.669,1.669,0,0,1-.676-.126,1.327,1.327,0,0,1-.482-.352,1.5,1.5,0,0,1-.293-.541,2.6,2.6,0,0,1-.11-.686,1.955,1.955,0,0,1,.113-.68,1.621,1.621,0,0,1,.318-.535,1.443,1.443,0,0,1,.485-.352,1.478,1.478,0,0,1,.613-.126,1.333,1.333,0,0,1,.72.179,1.428,1.428,0,0,1,.46.456,1.8,1.8,0,0,1,.239.6,2.586,2.586,0,0,1,.054.623h-2.435a1.3,1.3,0,0,0,.05.406.919.919,0,0,0,.182.34.9.9,0,0,0,.321.236,1.1,1.1,0,0,0,.459.088.924.924,0,0,0,.557-.158.758.758,0,0,0,.286-.478h.529A1.3,1.3,0,0,1,133.47,183.09ZM133.341,181a.912.912,0,0,0-.195-.293.924.924,0,0,0-.29-.2.914.914,0,0,0-.368-.072.933.933,0,0,0-.374.072.87.87,0,0,0-.286.2.95.95,0,0,0-.189.293,1.1,1.1,0,0,0-.082.356h1.869A1.1,1.1,0,0,0,133.341,181Z" transform="translate(-117.223 -178.698)"/><path class="a" d="M140.617,183.832a3.4,3.4,0,0,1-.185.4,1.092,1.092,0,0,1-.2.268.693.693,0,0,1-.245.151.946.946,0,0,1-.312.047,1.387,1.387,0,0,1-.188-.012.927.927,0,0,1-.182-.044v-.491a.91.91,0,0,0,.161.054.676.676,0,0,0,.154.022.459.459,0,0,0,.274-.079.481.481,0,0,0,.167-.223l.22-.547-1.29-3.234h.6l.95,2.662h.012l.912-2.662h.566Z" transform="translate(-121.778 -178.797)"/><path class="a" d="M147.745,177.919v-.655h.535v.655Zm.535.585v3.253h-.535V178.5Z" transform="translate(-126.766 -177.157)"/><path class="a" d="M151.977,180.044v.516h.012a1.127,1.127,0,0,1,1.057-.591,1.415,1.415,0,0,1,.535.088.885.885,0,0,1,.346.245.917.917,0,0,1,.185.374,2.011,2.011,0,0,1,.053.482V183.3h-.535v-2.2a.647.647,0,0,0-.176-.478.655.655,0,0,0-.485-.176,1.083,1.083,0,0,0-.425.076.8.8,0,0,0-.3.214.916.916,0,0,0-.179.324,1.31,1.31,0,0,0-.06.406V183.3h-.535v-3.253Z" transform="translate(-128.89 -178.698)"/><path class="a" d="M162.367,184.216a1.488,1.488,0,0,1-1.145.4,2.188,2.188,0,0,1-.463-.051,1.411,1.411,0,0,1-.428-.164.994.994,0,0,1-.318-.3.843.843,0,0,1-.139-.447h.535a.4.4,0,0,0,.091.246.671.671,0,0,0,.207.164,1.014,1.014,0,0,0,.267.091,1.476,1.476,0,0,0,.277.028.989.989,0,0,0,.447-.091.837.837,0,0,0,.3-.252,1.038,1.038,0,0,0,.173-.387,2.154,2.154,0,0,0,.053-.5v-.214h-.012a.9.9,0,0,1-.418.444,1.3,1.3,0,0,1-.595.142,1.438,1.438,0,0,1-.636-.132,1.328,1.328,0,0,1-.453-.355,1.512,1.512,0,0,1-.274-.522,2.148,2.148,0,0,1-.091-.633,2.474,2.474,0,0,1,.075-.595,1.62,1.62,0,0,1,.252-.553,1.38,1.38,0,0,1,.466-.409,1.451,1.451,0,0,1,.711-.16,1.205,1.205,0,0,1,.566.135.954.954,0,0,1,.4.406h.006v-.466h.5v2.976A1.714,1.714,0,0,1,162.367,184.216Zm-.683-1.463a.877.877,0,0,0,.3-.289,1.323,1.323,0,0,0,.167-.406,1.987,1.987,0,0,0,.053-.453,1.786,1.786,0,0,0-.05-.422,1.188,1.188,0,0,0-.161-.374.837.837,0,0,0-.287-.267.848.848,0,0,0-.428-.1.924.924,0,0,0-.44.1.859.859,0,0,0-.3.261,1.116,1.116,0,0,0-.17.378,1.83,1.83,0,0,0-.053.447,2.213,2.213,0,0,0,.044.44,1.25,1.25,0,0,0,.151.4.843.843,0,0,0,.283.289.814.814,0,0,0,.44.11A.867.867,0,0,0,161.684,182.753Z" transform="translate(-133.604 -178.698)"/><path class="a" d="M174.659,178.853v.472h-.648v2.02a.593.593,0,0,0,.016.151.157.157,0,0,0,.06.088.259.259,0,0,0,.123.041,1.75,1.75,0,0,0,.2.009h.246v.472h-.409a1.917,1.917,0,0,1-.355-.028.521.521,0,0,1-.239-.1.442.442,0,0,1-.136-.214,1.24,1.24,0,0,1-.044-.365v-2.07h-.554v-.472h.554v-.975h.535v.975Z" transform="translate(-141.107 -177.507)"/><path class="a" d="M179.422,177.264v1.718h.013a.706.706,0,0,1,.176-.255,1.012,1.012,0,0,1,.255-.17,1.33,1.33,0,0,1,.3-.1,1.485,1.485,0,0,1,.3-.031,1.414,1.414,0,0,1,.535.088.885.885,0,0,1,.346.245.918.918,0,0,1,.186.374,2.012,2.012,0,0,1,.053.482v2.139h-.535v-2.2a.646.646,0,0,0-.176-.478.655.655,0,0,0-.485-.176,1.082,1.082,0,0,0-.425.076.8.8,0,0,0-.3.214.916.916,0,0,0-.179.324,1.323,1.323,0,0,0-.06.406v1.837h-.535v-4.493Z" transform="translate(-144.505 -177.157)"/><path class="a" d="M189.642,183.09a1.478,1.478,0,0,1-.918.276,1.67,1.67,0,0,1-.677-.126,1.325,1.325,0,0,1-.481-.352,1.485,1.485,0,0,1-.293-.541,2.581,2.581,0,0,1-.11-.686,1.955,1.955,0,0,1,.113-.68,1.621,1.621,0,0,1,.318-.535,1.443,1.443,0,0,1,.485-.352,1.479,1.479,0,0,1,.613-.126,1.335,1.335,0,0,1,.721.179,1.427,1.427,0,0,1,.459.456,1.8,1.8,0,0,1,.239.6,2.586,2.586,0,0,1,.054.623h-2.435a1.283,1.283,0,0,0,.05.406.912.912,0,0,0,.182.34.9.9,0,0,0,.321.236,1.1,1.1,0,0,0,.459.088.924.924,0,0,0,.557-.158.76.76,0,0,0,.287-.478h.529A1.3,1.3,0,0,1,189.642,183.09ZM189.513,181a.905.905,0,0,0-.195-.293.962.962,0,0,0-1.032-.2.872.872,0,0,0-.287.2.95.95,0,0,0-.188.293,1.1,1.1,0,0,0-.082.356H189.6A1.1,1.1,0,0,0,189.513,181Z" transform="translate(-149.219 -178.698)"/><path class="a" d="M203.906,177.264v.5h-2.5V179.2h2.334v.5H201.4v1.554h2.523v.5H200.8v-4.493Z" transform="translate(-156.989 -177.157)"/><path class="a" d="M212.736,183.285a.756.756,0,0,1-.384.082.46.46,0,0,1-.33-.116.5.5,0,0,1-.123-.38,1.279,1.279,0,0,1-.513.38,1.779,1.779,0,0,1-1.051.066.971.971,0,0,1-.343-.158.749.749,0,0,1-.229-.28.941.941,0,0,1-.085-.419.955.955,0,0,1,.094-.453.824.824,0,0,1,.249-.286,1.14,1.14,0,0,1,.352-.167,4.121,4.121,0,0,1,.406-.094c.147-.029.286-.052.418-.066a2.36,2.36,0,0,0,.349-.063.58.58,0,0,0,.239-.12.29.29,0,0,0,.088-.23.531.531,0,0,0-.066-.283.45.45,0,0,0-.17-.164.689.689,0,0,0-.233-.076,1.773,1.773,0,0,0-.255-.019,1.132,1.132,0,0,0-.566.129.549.549,0,0,0-.245.488H209.8a1.154,1.154,0,0,1,.126-.51.955.955,0,0,1,.3-.337,1.274,1.274,0,0,1,.431-.186,2.274,2.274,0,0,1,.519-.056,3.031,3.031,0,0,1,.438.031,1.147,1.147,0,0,1,.393.129.757.757,0,0,1,.283.273.872.872,0,0,1,.107.458v1.67a1.249,1.249,0,0,0,.022.276c.015.059.064.088.148.088a.647.647,0,0,0,.164-.025Zm-.869-1.667a.669.669,0,0,1-.264.11c-.109.023-.223.042-.343.056s-.24.031-.362.05a1.342,1.342,0,0,0-.328.091.592.592,0,0,0-.236.179.5.5,0,0,0-.091.316.431.431,0,0,0,.053.222.442.442,0,0,0,.139.147.589.589,0,0,0,.2.081,1.1,1.1,0,0,0,.239.025,1.279,1.279,0,0,0,.453-.072.955.955,0,0,0,.308-.182.721.721,0,0,0,.176-.238.6.6,0,0,0,.056-.241Z" transform="translate(-162.044 -178.698)"/><path class="a" d="M218.954,180.043v.686h.012a1.45,1.45,0,0,1,.478-.585,1.2,1.2,0,0,1,.717-.176v.566a1.518,1.518,0,0,0-.547.088.864.864,0,0,0-.365.258,1.072,1.072,0,0,0-.2.412,2.236,2.236,0,0,0-.063.557V183.3h-.535v-3.253Z" transform="translate(-167.041 -178.697)"/><path class="a" d="M224.851,178.853v.472H224.2v2.02a.572.572,0,0,0,.016.151.153.153,0,0,0,.06.088.259.259,0,0,0,.123.041,1.745,1.745,0,0,0,.2.009h.245v.472h-.409a1.913,1.913,0,0,1-.355-.028.523.523,0,0,1-.239-.1.445.445,0,0,1-.135-.214,1.237,1.237,0,0,1-.044-.365v-2.07h-.553v-.472h.553v-.975h.535v.975Z" transform="translate(-169.697 -177.507)"/><path class="a" d="M229.614,177.264v1.718h.012a.711.711,0,0,1,.176-.255,1.008,1.008,0,0,1,.255-.17,1.33,1.33,0,0,1,.3-.1,1.484,1.484,0,0,1,.3-.031,1.416,1.416,0,0,1,.535.088.886.886,0,0,1,.346.245.912.912,0,0,1,.185.374,2.011,2.011,0,0,1,.054.482v2.139h-.535v-2.2a.647.647,0,0,0-.176-.478.656.656,0,0,0-.485-.176,1.082,1.082,0,0,0-.425.076.788.788,0,0,0-.3.214.909.909,0,0,0-.18.324,1.31,1.31,0,0,0-.06.406v1.837h-.535v-4.493Z" transform="translate(-173.095 -177.157)"/><path class="a" d="M243.317,178.853v.472h-.648v2.02a.573.573,0,0,0,.016.151.153.153,0,0,0,.06.088.259.259,0,0,0,.123.041,1.74,1.74,0,0,0,.2.009h.245v.472h-.409a1.913,1.913,0,0,1-.355-.028.521.521,0,0,1-.239-.1.442.442,0,0,1-.135-.214,1.223,1.223,0,0,1-.044-.365v-2.07h-.553v-.472h.553v-.975h.535v.975Z" transform="translate(-180.216 -177.507)"/><path class="a" d="M247.236,181a1.518,1.518,0,0,1,.3-.541,1.423,1.423,0,0,1,.5-.362,1.823,1.823,0,0,1,1.363,0,1.43,1.43,0,0,1,.494.362,1.519,1.519,0,0,1,.3.541,2.164,2.164,0,0,1,.1.67,2.134,2.134,0,0,1-.1.667,1.524,1.524,0,0,1-.3.538,1.4,1.4,0,0,1-.494.359,1.868,1.868,0,0,1-1.363,0,1.39,1.39,0,0,1-.5-.359,1.523,1.523,0,0,1-.3-.538,2.134,2.134,0,0,1-.1-.667A2.164,2.164,0,0,1,247.236,181Zm.544,1.2a1.1,1.1,0,0,0,.217.384.947.947,0,0,0,.324.236.987.987,0,0,0,.787,0,.948.948,0,0,0,.324-.236,1.1,1.1,0,0,0,.217-.384,1.792,1.792,0,0,0,0-1.051,1.138,1.138,0,0,0-.217-.387.925.925,0,0,0-.324-.239.987.987,0,0,0-.787,0,.924.924,0,0,0-.324.239,1.131,1.131,0,0,0-.217.387,1.792,1.792,0,0,0,0,1.051Z" transform="translate(-183.381 -178.698)"/><path class="a" d="M263.742,177.757a1.392,1.392,0,0,0-.815-.239,1.458,1.458,0,0,0-.689.151,1.356,1.356,0,0,0-.472.406,1.751,1.751,0,0,0-.274.582,2.612,2.612,0,0,0-.088.68,2.918,2.918,0,0,0,.088.727,1.74,1.74,0,0,0,.274.6,1.355,1.355,0,0,0,.475.406,1.477,1.477,0,0,0,.692.151,1.324,1.324,0,0,0,.525-.1,1.2,1.2,0,0,0,.4-.27,1.246,1.246,0,0,0,.261-.412,1.7,1.7,0,0,0,.113-.516h.6a2.046,2.046,0,0,1-.585,1.321,1.9,1.9,0,0,1-1.36.472,2.164,2.164,0,0,1-.912-.179,1.793,1.793,0,0,1-.648-.494,2.125,2.125,0,0,1-.387-.742,3.166,3.166,0,0,1-.129-.919,3,3,0,0,1,.138-.921,2.224,2.224,0,0,1,.406-.752,1.9,1.9,0,0,1,.667-.507,2.153,2.153,0,0,1,.915-.186,2.3,2.3,0,0,1,.667.095,1.788,1.788,0,0,1,.56.277,1.557,1.557,0,0,1,.409.456,1.668,1.668,0,0,1,.214.632h-.6A1.115,1.115,0,0,0,263.742,177.757Z" transform="translate(-191.167 -177.015)"/><path class="a" d="M272.684,180.043v.686h.012a1.45,1.45,0,0,1,.478-.585,1.2,1.2,0,0,1,.717-.176v.566a1.522,1.522,0,0,0-.548.088.862.862,0,0,0-.365.258,1.066,1.066,0,0,0-.2.412,2.235,2.235,0,0,0-.063.557V183.3h-.535v-3.253Z" transform="translate(-197.646 -178.697)"/><path class="a" d="M279.455,183.09a1.478,1.478,0,0,1-.918.276,1.672,1.672,0,0,1-.677-.126,1.334,1.334,0,0,1-.482-.352,1.5,1.5,0,0,1-.292-.541,2.615,2.615,0,0,1-.11-.686,1.965,1.965,0,0,1,.113-.68,1.628,1.628,0,0,1,.318-.535,1.444,1.444,0,0,1,.485-.352,1.476,1.476,0,0,1,.613-.126,1.334,1.334,0,0,1,.72.179,1.427,1.427,0,0,1,.459.456,1.811,1.811,0,0,1,.239.6,2.583,2.583,0,0,1,.053.623h-2.435a1.3,1.3,0,0,0,.05.406.926.926,0,0,0,.183.34.9.9,0,0,0,.321.236,1.105,1.105,0,0,0,.46.088.926.926,0,0,0,.557-.158.762.762,0,0,0,.286-.478h.529A1.3,1.3,0,0,1,279.455,183.09ZM279.326,181a.913.913,0,0,0-.2-.293.927.927,0,0,0-.289-.2.915.915,0,0,0-.368-.072.935.935,0,0,0-.375.072.869.869,0,0,0-.286.2.943.943,0,0,0-.189.293,1.109,1.109,0,0,0-.082.356h1.869A1.1,1.1,0,0,0,279.326,181Z" transform="translate(-200.378 -178.698)"/><path class="a" d="M288.44,183.285a.754.754,0,0,1-.383.082.462.462,0,0,1-.331-.116.506.506,0,0,1-.123-.38,1.279,1.279,0,0,1-.513.38,1.779,1.779,0,0,1-1.051.066.971.971,0,0,1-.343-.158.749.749,0,0,1-.229-.28.941.941,0,0,1-.085-.419.955.955,0,0,1,.095-.453.815.815,0,0,1,.248-.286,1.136,1.136,0,0,1,.352-.167,4.155,4.155,0,0,1,.406-.094c.147-.029.286-.052.418-.066a2.352,2.352,0,0,0,.349-.063.583.583,0,0,0,.239-.12.292.292,0,0,0,.088-.23.535.535,0,0,0-.066-.283.445.445,0,0,0-.17-.164.687.687,0,0,0-.233-.076,1.771,1.771,0,0,0-.254-.019,1.131,1.131,0,0,0-.567.129.549.549,0,0,0-.245.488h-.535a1.153,1.153,0,0,1,.126-.51.955.955,0,0,1,.3-.337,1.275,1.275,0,0,1,.431-.186,2.272,2.272,0,0,1,.519-.056,3.019,3.019,0,0,1,.437.031,1.144,1.144,0,0,1,.393.129.757.757,0,0,1,.284.273.876.876,0,0,1,.107.458v1.67a1.249,1.249,0,0,0,.022.276c.015.059.064.088.148.088a.641.641,0,0,0,.164-.025Zm-.868-1.667a.669.669,0,0,1-.264.11c-.109.023-.223.042-.343.056s-.24.031-.362.05a1.338,1.338,0,0,0-.327.091.592.592,0,0,0-.236.179.5.5,0,0,0-.091.316.431.431,0,0,0,.054.222.44.44,0,0,0,.138.147.589.589,0,0,0,.2.081,1.1,1.1,0,0,0,.239.025,1.273,1.273,0,0,0,.453-.072.953.953,0,0,0,.309-.182.715.715,0,0,0,.176-.238.6.6,0,0,0,.056-.241Z" transform="translate(-205.166 -178.698)"/><path class="a" d="M295.131,178.853v.472h-.648v2.02a.572.572,0,0,0,.016.151.154.154,0,0,0,.059.088.261.261,0,0,0,.123.041,1.751,1.751,0,0,0,.2.009h.245v.472h-.409a1.909,1.909,0,0,1-.355-.028.521.521,0,0,1-.239-.1.445.445,0,0,1-.136-.214,1.239,1.239,0,0,1-.044-.365v-2.07h-.554v-.472h.554v-.975h.535v.975Z" transform="translate(-209.73 -177.507)"/><path class="a" d="M301.43,183.09a1.478,1.478,0,0,1-.918.276,1.671,1.671,0,0,1-.677-.126,1.334,1.334,0,0,1-.482-.352,1.491,1.491,0,0,1-.292-.541,2.6,2.6,0,0,1-.11-.686,1.955,1.955,0,0,1,.113-.68,1.621,1.621,0,0,1,.318-.535,1.447,1.447,0,0,1,.485-.352,1.479,1.479,0,0,1,.613-.126,1.333,1.333,0,0,1,.72.179,1.424,1.424,0,0,1,.46.456,1.819,1.819,0,0,1,.239.6,2.628,2.628,0,0,1,.053.623h-2.436a1.3,1.3,0,0,0,.05.406.914.914,0,0,0,.183.34.894.894,0,0,0,.321.236,1.1,1.1,0,0,0,.459.088.924.924,0,0,0,.557-.158.76.76,0,0,0,.287-.478h.529A1.3,1.3,0,0,1,301.43,183.09ZM301.3,181a.905.905,0,0,0-.2-.293.926.926,0,0,0-.289-.2.917.917,0,0,0-.368-.072.934.934,0,0,0-.374.072.87.87,0,0,0-.286.2.95.95,0,0,0-.189.293,1.12,1.12,0,0,0-.082.356h1.869A1.089,1.089,0,0,0,301.3,181Z" transform="translate(-212.895 -178.698)"/><path class="a" d="M313.319,178.853v.472h-.648v2.02a.573.573,0,0,0,.016.151.154.154,0,0,0,.059.088.261.261,0,0,0,.123.041,1.737,1.737,0,0,0,.2.009h.246v.472h-.409a1.909,1.909,0,0,1-.355-.028.523.523,0,0,1-.239-.1.445.445,0,0,1-.135-.214,1.224,1.224,0,0,1-.044-.365v-2.07h-.554v-.472h.554v-.975h.535v.975Z" transform="translate(-220.09 -177.507)"/><path class="a" d="M318.083,177.264v1.718h.013a.706.706,0,0,1,.176-.255,1.006,1.006,0,0,1,.255-.17,1.337,1.337,0,0,1,.3-.1,1.486,1.486,0,0,1,.3-.031,1.413,1.413,0,0,1,.535.088.883.883,0,0,1,.346.245.908.908,0,0,1,.186.374,2.035,2.035,0,0,1,.053.482v2.139h-.535v-2.2a.646.646,0,0,0-.176-.478.655.655,0,0,0-.485-.176,1.083,1.083,0,0,0-.425.076.8.8,0,0,0-.3.214.916.916,0,0,0-.18.324,1.322,1.322,0,0,0-.06.406v1.837h-.535v-4.493Z" transform="translate(-223.488 -177.157)"/><path class="a" d="M328.3,183.09a1.479,1.479,0,0,1-.919.276,1.67,1.67,0,0,1-.676-.126,1.334,1.334,0,0,1-.482-.352,1.49,1.49,0,0,1-.292-.541,2.58,2.58,0,0,1-.11-.686,1.955,1.955,0,0,1,.113-.68,1.62,1.62,0,0,1,.318-.535,1.447,1.447,0,0,1,.485-.352,1.479,1.479,0,0,1,.613-.126,1.333,1.333,0,0,1,.72.179,1.423,1.423,0,0,1,.46.456,1.821,1.821,0,0,1,.239.6,2.63,2.63,0,0,1,.053.623H326.39a1.3,1.3,0,0,0,.05.406.913.913,0,0,0,.183.34.89.89,0,0,0,.321.236,1.1,1.1,0,0,0,.459.088.924.924,0,0,0,.557-.158.76.76,0,0,0,.287-.478h.529A1.3,1.3,0,0,1,328.3,183.09ZM328.174,181a.9.9,0,0,0-.195-.293.962.962,0,0,0-1.032-.2.871.871,0,0,0-.286.2.951.951,0,0,0-.189.293,1.12,1.12,0,0,0-.082.356h1.869A1.076,1.076,0,0,0,328.174,181Z" transform="translate(-228.202 -178.698)"/><path class="a" d="M342.416,177.264v.5h-2.354V179.2h2.064v.5h-2.064v2.058h-.6v-4.493Z" transform="translate(-235.973 -177.157)"/><path class="a" d="M350.4,183.4v-.516h-.013a1.089,1.089,0,0,1-.434.444,1.3,1.3,0,0,1-.623.141,1.455,1.455,0,0,1-.535-.085.855.855,0,0,1-.346-.242.918.918,0,0,1-.185-.374,2.013,2.013,0,0,1-.053-.482v-2.139h.535v2.2a.645.645,0,0,0,.176.478.655.655,0,0,0,.485.176,1.087,1.087,0,0,0,.424-.076.79.79,0,0,0,.3-.214.922.922,0,0,0,.179-.324,1.325,1.325,0,0,0,.059-.406v-1.837h.535V183.4Z" transform="translate(-240.953 -178.797)"/><path class="a" d="M357.824,178.853v.472h-.648v2.02a.574.574,0,0,0,.016.151.154.154,0,0,0,.06.088.259.259,0,0,0,.123.041,1.746,1.746,0,0,0,.2.009h.245v.472h-.409a1.913,1.913,0,0,1-.355-.028.523.523,0,0,1-.239-.1.445.445,0,0,1-.135-.214,1.24,1.24,0,0,1-.044-.365v-2.07h-.554v-.472h.554v-.975h.535v.975Z" transform="translate(-245.441 -177.507)"/><path class="a" d="M364.243,183.4v-.516h-.013a1.089,1.089,0,0,1-.434.444,1.3,1.3,0,0,1-.623.141,1.456,1.456,0,0,1-.535-.085.857.857,0,0,1-.346-.242.918.918,0,0,1-.186-.374,2.013,2.013,0,0,1-.053-.482v-2.139h.535v2.2a.645.645,0,0,0,.176.478.655.655,0,0,0,.485.176,1.087,1.087,0,0,0,.424-.076.79.79,0,0,0,.3-.214.924.924,0,0,0,.179-.324,1.326,1.326,0,0,0,.059-.406v-1.837h.535V183.4Z" transform="translate(-248.839 -178.797)"/><path class="a" d="M371.2,180.043v.686h.013a1.443,1.443,0,0,1,.478-.585,1.2,1.2,0,0,1,.717-.176v.566a1.522,1.522,0,0,0-.548.088.861.861,0,0,0-.365.258,1.065,1.065,0,0,0-.2.412,2.214,2.214,0,0,0-.063.557V183.3h-.535v-3.253Z" transform="translate(-253.76 -178.697)"/><path class="a" d="M377.968,183.09a1.479,1.479,0,0,1-.919.276,1.67,1.67,0,0,1-.676-.126,1.334,1.334,0,0,1-.482-.352,1.491,1.491,0,0,1-.292-.541,2.58,2.58,0,0,1-.11-.686,1.955,1.955,0,0,1,.113-.68,1.621,1.621,0,0,1,.318-.535,1.447,1.447,0,0,1,.485-.352,1.479,1.479,0,0,1,.613-.126,1.333,1.333,0,0,1,.72.179,1.424,1.424,0,0,1,.46.456,1.82,1.82,0,0,1,.239.6,2.63,2.63,0,0,1,.053.623h-2.436a1.3,1.3,0,0,0,.05.406.913.913,0,0,0,.183.34.89.89,0,0,0,.321.236,1.1,1.1,0,0,0,.459.088.924.924,0,0,0,.557-.158.76.76,0,0,0,.287-.478h.529A1.3,1.3,0,0,1,377.968,183.09ZM377.839,181a.906.906,0,0,0-.195-.293.962.962,0,0,0-1.032-.2.87.87,0,0,0-.286.2.95.95,0,0,0-.189.293,1.12,1.12,0,0,0-.082.356h1.869A1.077,1.077,0,0,0,377.839,181Z" transform="translate(-256.492 -178.698)"/></g><g transform="translate(99.001 113.822)"><g transform="translate(23.44 0.032)"><path d="M153.464,134.732V115.053h10.145q6.586,0,6.588,5.647a6.047,6.047,0,0,1-1.667,4.479,6.386,6.386,0,0,1-4.723,1.666h-7.412v7.888Zm2.93-10.414h7.02q3.852,0,3.853-3.562a3.14,3.14,0,0,0-.852-2.321,3.35,3.35,0,0,0-2.478-.856h-7.543Z" transform="translate(-153.464 -114.555)"/><path d="M203.116,134.732l-2.507-5.742h-9.645l-2.506,5.742h-3.144l8.9-19.679h3.333l8.9,19.679Zm-3.576-8.269-3.778-8.712-3.693,8.712Z" transform="translate(-171.606 -114.555)"/><path d="M235.222,127.6h2.93a3.781,3.781,0,0,0,2.066,3.537,8.713,8.713,0,0,0,4.271.913,7.408,7.408,0,0,0,3.861-.884,2.74,2.74,0,0,0,1.461-2.454q0-2.317-3.668-2.925l-4.464-.743q-5.844-.966-5.846-5.158a5.249,5.249,0,0,1,2.081-4.358,9.208,9.208,0,0,1,5.8-1.627,10.682,10.682,0,0,1,5.567,1.3,5.749,5.749,0,0,1,2.809,4.878h-2.918q-.579-3.646-5.838-3.646a5.9,5.9,0,0,0-3.085.745,2.75,2.75,0,0,0-1.487,2.482q0,2.041,3.227,2.594l4.822.827q5.928,1.021,5.926,5.048a5.549,5.549,0,0,1-2.73,5.1,10.956,10.956,0,0,1-5.739,1.354,11.469,11.469,0,0,1-6.178-1.462A6.01,6.01,0,0,1,235.222,127.6Z" transform="translate(-200.034 -113.896)"/><path d="M299.548,121.476h-2.921a5.648,5.648,0,0,0-1.984-3.562,7.168,7.168,0,0,0-4.739-1.491,7.369,7.369,0,0,0-5.54,2.015,8.262,8.262,0,0,0-2.067,6.045,7.9,7.9,0,0,0,1.682,5.188,7.079,7.079,0,0,0,5.76,2.374q5.7,0,6.888-5.5h2.921a8.391,8.391,0,0,1-2.979,5.654,10.221,10.221,0,0,1-6.864,2.373,10.619,10.619,0,0,1-7.03-2.318q-3.3-2.754-3.307-8.076a10.224,10.224,0,0,1,2.647-7.3,9.98,9.98,0,0,1,7.664-2.978,11.9,11.9,0,0,1,6.231,1.571A7.355,7.355,0,0,1,299.548,121.476Z" transform="translate(-225.181 -113.896)"/><path d="M331.525,124.233a10.2,10.2,0,0,1,2.511-7.057q2.924-3.281,8.441-3.281t8.439,3.281a11.172,11.172,0,0,1,0,14.114q-2.923,3.283-8.439,3.283t-8.441-3.283A10.2,10.2,0,0,1,331.525,124.233Zm18.973,0a7.5,7.5,0,0,0-2.315-5.852,9.291,9.291,0,0,0-11.413,0,8.548,8.548,0,0,0,0,11.7,9.285,9.285,0,0,0,11.413,0A7.493,7.493,0,0,0,350.5,124.233Z" transform="translate(-254.89 -113.896)"/></g><path class="b" d="M104.363,113.822H115.47c2.6,0,4.434,2.8,4.434,4.947s-1.6,5.3-4.668,5.3h-4.491c-.708,0-1.3-.357-1.3-.952v-8.463l-9.453,9.533h7.918c1.182,0,1.653.121,1.653.955v4.173a5.34,5.34,0,0,1-5.434,5.244c-3.664,0-4.964-3.457-4.964-5.363V119.185A5.334,5.334,0,0,1,104.363,113.822Z" transform="translate(-99.094 -113.822)"/><rect class="c" width="122" height="0.907" transform="translate(0 23.528)"/></g></g></svg>