<?xml version="1.0" encoding="UTF-8"?>
<svg id="_レイヤー_2" data-name="レイヤー 2" xmlns="http://www.w3.org/2000/svg" viewBox="0 0 255.12 44.63">
  <defs>
    <style>
      .cls-1 {
        fill: #861c3c;
      }

      .cls-1, .cls-2 {
        stroke-width: 0px;
      }

      .cls-2 {
        fill: #3e3a39;
      }
    </style>
  </defs>
  <g id="Artwork">
    <g>
      <g>
        <path class="cls-1" d="M5.32,21.24c0-3.37,1.05-6.49,2.83-9.07,3.91,1.27,7.33,3.63,9.88,6.74.2.24.39.49.58.74h5.31c.19-.25.38-.5.58-.74,2.55-3.11,5.97-5.47,9.88-6.74,1.78,2.58,2.83,5.7,2.83,9.07h5.31c0-3.65-.92-7.08-2.54-10.08.31-.01.63-.02.94-.02h1.06v-5.31h-1.06c-1.58,0-3.12.14-4.62.4C32.63,2.55,27.62.21,22.06,0v5.32c3.03.15,5.83,1.14,8.18,2.75-3.44,1.51-6.49,3.73-8.98,6.46-2.49-2.74-5.54-4.95-8.98-6.46,2.35-1.61,5.16-2.6,8.18-2.75V0c-5.56.21-10.58,2.55-14.25,6.23-1.5-.26-3.04-.4-4.62-.4H.53v5.31h1.06c.32,0,.63,0,.94.02-1.62,3-2.54,6.43-2.54,10.08h5.32Z"/>
        <path class="cls-1" d="M23.92,22.84v-1.59h-5.31v1.59H.06c.75,10.11,8.57,18.26,18.54,19.5v2.29h5.31v-2.29c9.97-1.24,17.79-9.39,18.54-19.5h-18.54ZM6.89,28.15h11.71v8.81c-5.18-.87-9.51-4.23-11.71-8.81ZM23.92,36.97v-8.81h11.72c-2.21,4.58-6.54,7.95-11.72,8.81Z"/>
      </g>
      <g>
        <path class="cls-2" d="M134.34,11.31l-3.67-2.32c-.23-.15-.39-.15-.56.05l-.77.84h-9.57v-5.64h-5.28v5.64h-8.81l-4.86-.63v19.9h4.86v-1.2h8.81v10.31h5.28v-10.31h9.13v1.2h4.86V12.54s.04,0,.43-.46c.34-.39.35-.63.16-.77M105.68,12.45h8.81v12.91h-8.81v-12.91ZM128.89,25.36h-9.13v-12.91h9.13v12.91Z"/>
        <path class="cls-2" d="M94.18,12.03l-2.76-2.23c-.18-.16-.36-.16-.51.03l-.73.95h-9.77c.38-1.7.68-3.62.87-5.8l-5.09-.53c-.58,9.35-2.1,12.82-4.56,15.77l1.07,1.98c3.01-1.5,5.46-4.11,7-8.85h3.81v19.41c0,1.21-1.04,2.33-2.34,2.33h-2.44v2.5h5.37c2.56,0,4.22-1.82,4.22-4.22V13.34h4.77c.48,0,.56-.06.99-.56.31-.37.31-.57.1-.75"/>
        <path class="cls-2" d="M73.62,13.34c.48,0,.56-.06.99-.56.31-.36.31-.57.1-.75l-2.76-2.23c-.18-.16-.36-.16-.51.03l-.74.95h-7.02c.4-1.71.7-3.63.89-5.8l-5.09-.53c-.53,8.48-1.93,12.49-4.2,15.67l1.07,1.98c2.86-1.79,5.14-4.43,6.6-8.75h.76v24.58h4.81V13.34h5.09Z"/>
        <path class="cls-2" d="M174.23,35.03l-2.82-2.28c-.18-.17-.37-.16-.52.03l-.75.97h-11.2V9.97h12.32c.49,0,.57-.06,1.01-.57.32-.37.32-.58.1-.77l-2.82-2.28c-.18-.17-.37-.16-.52.03l-.75.97h-27.39l.17,2.62h12.6v23.78h-14.27l.17,2.62h33.56c.49,0,.57-.06,1.01-.57.32-.37.32-.58.11-.77"/>
        <path class="cls-2" d="M252.31,13.76c-.17-.15-.34-.15-.48.03l-.69.89h-8.85v-4.84h11.66c.45,0,.52-.05.92-.52.29-.34.29-.54.1-.71l-2.59-2.09c-.17-.15-.34-.15-.48.03l-.69.89h-10.21v-3.19h-4.81v3.19h-9.06l-4.62-.63v15.75c0,6.19-.87,9.52-2.83,11.75l.71,2.35c4.38-1.7,6.74-6.46,6.74-14.1v-12.72h10.53v12.48h-4.81l-4.66-.62v15.56h4.66v-1.03h15.54v1.03h4.67v-12.39s.03,0,.41-.44c.33-.38.33-.6.15-.74l-3.53-2.22c-.22-.15-.38-.15-.54.05l-.74.81h-6.53v-5.24h11.58c.45,0,.52-.06.92-.52.29-.34.29-.53.09-.71l-2.58-2.09ZM248.41,33.82h-15.54v-9.11h15.54v9.11Z"/>
        <path class="cls-2" d="M195.76,20.26s-.01.04.22-.22l.45,1.63c2.95-.33,5.64-1.33,7.91-2.83,2.19,1.68,5.01,2.83,8.54,3.44l.9-3.18c-2.67-.55-4.99-1.27-6.91-2.29,2-1.94,3.49-4.35,4.32-7.02h1.23c.42,0,.49-.05.87-.49.28-.32.28-.51.09-.67l-2.44-1.97c-.16-.14-.32-.14-.45.03l-.65.84h-7.48c.24-.84.41-1.72.47-2.64l-4.44-.44c-.31,4.58-1.57,7.7-4.18,9.12l.74,2.12c1.63-.45,3.33-1.58,4.74-3.2.61,1.61,1.42,3.04,2.46,4.28-1.58,1.27-3.52,2.25-5.82,2.78.04-.13,0-.23-.09-.3l-3.11-1.96c-.19-.13-.33-.13-.47.04l-.45.48h-.72c-.62-1.09-1.45-2.15-2.43-3.1,3.2-1.14,5-3.35,5.61-6.23,0,0,0,.03.36-.38.28-.33.29-.53.13-.65l-3.11-1.96c-.19-.13-.33-.13-.47.04l-.44.48h-11.04l.17,2.29h10.15c-.33,2.38-1.12,3.89-3.16,4.87-1.58-1.17-3.34-2.02-4.99-2.35l-.59,2.08c2.2.79,4.22,2.71,5.41,4.9h-7.83l.17,2.29h6.11c-2.35,4.93-4.38,7.45-7.16,9.64l.66,2.16c2.58-1.19,4.82-2.93,6.77-5.35v7.35c0,.82-.46,1.51-1.41,1.51h-1.8v2.31h3.44c2.48,0,3.81-1.5,3.81-3.52v-14.1h2.2c-.15,3.23-.78,4.62-2.09,5.26l1.01,1.65c2.84-.61,4.19-3.03,4.77-6.73M201.49,9.77h5.41c-.59,1.8-1.51,3.54-2.79,5.06-1.29-1.24-2.23-2.78-2.8-4.73.06-.11.12-.21.17-.32"/>
        <path class="cls-2" d="M213.06,25.61l-3.15-1.99c-.2-.13-.34-.13-.48.04l-.66.72h-3.93v-3.59h-4.25v3.59h-5.61l.16,2.28h5.08c-1.19,5.09-3.89,7.71-7.82,9.21l.71,1.92c6.1-1.27,10.15-5.16,11.39-11.13h3.89v6.27h0c0,1.23-.67,2.46-2.18,2.46h-2.73v2.28h4.73c3.04,0,4.36-1.92,4.36-4.47v-6.55s.03,0,.37-.39c.29-.34.3-.54.13-.66"/>
      </g>
    </g>
  </g>
</svg>