<?xml version="1.0" encoding="utf-8"?>
<!-- Generator: Adobe Illustrator 21.1.0, SVG Export Plug-In . SVG Version: 6.00 Build 0)  -->
<svg version="1.1" xmlns="http://www.w3.org/2000/svg" xmlns:xlink="http://www.w3.org/1999/xlink" x="0px" y="0px"
	 viewBox="0 0 521.6 85.2" style="enable-background:new 0 0 521.6 85.2;" xml:space="preserve">
<style type="text/css">
	.st0{fill:#0068B7;}
</style>
<g id="レイヤー_1">
</g>
<g id="切抜き">
</g>
<g id="レイヤー_2">
</g>
<g id="クレジット">
	<g>
		<path class="st0" d="M129.4,73c-8.9,0-16.6-3.3-16.6-29.6c0-26.2,6.1-31.3,16.6-31.3c10.4,0,16.6,5.1,16.6,31.3
			C146,69.6,138.3,73,129.4,73z M129.4,0c-27.8,0-43.1,15.1-43.1,43.4c0,28.3,18.1,41.8,43.1,41.8c25,0,43.1-13.5,43.1-41.8
			C172.6,15.1,157.3,0,129.4,0"/>
		<path class="st0" d="M234.5,25.2c0,4.8-1.5,12-15.2,12c0,0-4.3,0-8.2,0V13.9c2.4,0,5.4,0,9,0C233.2,13.9,234.5,20.4,234.5,25.2z
			 M224.5,48.3c22.8,0,33.8-8.7,33.8-23.5c0-15.5-11.8-23.3-35.1-23.3c-11.5,0-18.7,0-23,0h-5.7H174v12.4h7.9c3.7,0,5.2,2.3,5.2,5.2
			v47.4c0,3.7-2.4,5.2-5.3,5.2h-7.4v12h51v-12h-9c-2.9,0-5.2-1.5-5.2-5.2V48.3C214.5,48.3,218.9,48.3,224.5,48.3"/>
		<path class="st0" d="M320,25.2c0,4.8-1.5,12-15.2,12c0,0-4.3,0-8.2,0V13.9c2.5,0,5.4,0,9.1,0C318.7,13.9,320,20.4,320,25.2z
			 M309.9,48.3c22.8,0,33.8-8.7,33.8-23.5c0-15.5-11.8-23.3-35-23.3c-11.6,0-18.7,0-23,0H280h-20.6v12.4h7.9c3.7,0,5.1,2.3,5.1,5.2
			v47.4c0,3.7-2.3,5.2-5.2,5.2h-7.4v12h50.9v-12h-8.9c-2.9,0-5.3-1.5-5.3-5.2V48.3C300,48.3,304.3,48.3,309.9,48.3"/>
		<path class="st0" d="M0,1.5v33h12.4c1.5-18.6,9.3-21,16.9-21.1v53.2c0,3.7-2.4,5.2-5.2,5.2h-8v12h50.4v-12h-7.9
			c-2.9,0-5.3-1.5-5.3-5.2V13.3c7.6,0.1,15.4,2.5,16.8,21.1h12.4v-33H0z"/>
		<path class="st0" d="M363.4,46.3l8.2-25.2l7.5,25.2H363.4z M416.2,71.7h-1c-2.9,0-4.9-2-5.7-4.6L389.9,1.5h-27L341.6,67
			c0,0.1,0,0.1,0,0.2c-0.9,2.5-2.8,4.5-5.7,4.5h-0.9h-4.5v12H366v-12h-4.6h-1c-3.6,0-4.7-1-4-4l3-9.1h23.4l2.5,8.2h0
			c1.1,3.7,0.2,4.9-3.7,4.9h-1.1h-4.9v12h45.5v-12H416.2"/>
		<path class="st0" d="M521.6,1.5h-40.1v12h8.8c2.6,0.2,4.5,1.8,4.5,5.1v1.3v37.9L464.8,1.5l-25.9,0h-14.2v12h8.7
			c3.2,0.3,4.4,2.5,4.4,5.2v0.9h0v45.6h0v1.3c0,3.7-2.3,5.2-5.3,5.2h-1h-7v12h40v-12h-6.8h-1c-2.7,0-4.9-1.3-5.2-4.4v-42l31.2,58.4
			h25.7V19.9v-1.3c0-3.3,1.9-4.8,4.6-5.1h8.5V1.5z"/>
	</g>
</g>
</svg>
